<svg width="6198" height="2502" viewBox="0 0 6198 2502" fill="none" xmlns="http://www.w3.org/2000/svg">
<rect width="6198" height="2502" fill="white"/>
<path d="M2389 951C3072.96 951 2941.2 1570 3808.88 1593.5" stroke="black" stroke-width="24"/>
<line y1="-12" x2="170.005" y2="-12" transform="matrix(0.859237 -0.511577 0.548617 0.836073 3675.93 1588.47)" stroke="black" stroke-width="24"/>
<line y1="-12" x2="170.733" y2="-12" transform="matrix(0.842399 0.538854 -0.576194 0.817313 3656.13 1591.5)" stroke="black" stroke-width="24"/>
<rect x="241" y="441" width="2222" height="1904" fill="#1E1E1E"/>
<rect x="3764" y="441" width="2222" height="1904" fill="#1E1E1E"/>
<path d="M692.818 951V881.182H703.545V951H692.818ZM698.273 869.545C696.182 869.545 694.379 868.833 692.864 867.409C691.379 865.985 690.636 864.273 690.636 862.273C690.636 860.273 691.379 858.561 692.864 857.136C694.379 855.712 696.182 855 698.273 855C700.364 855 702.152 855.712 703.636 857.136C705.152 858.561 705.909 860.273 705.909 862.273C705.909 864.273 705.152 865.985 703.636 867.409C702.152 868.833 700.364 869.545 698.273 869.545ZM749.557 952.455C743.739 952.455 738.602 950.985 734.148 948.045C729.693 945.076 726.208 940.894 723.693 935.5C721.178 930.076 719.92 923.667 719.92 916.273C719.92 908.939 721.178 902.576 723.693 897.182C726.208 891.788 729.708 887.621 734.193 884.682C738.678 881.742 743.86 880.273 749.739 880.273C754.284 880.273 757.875 881.03 760.511 882.545C763.178 884.03 765.208 885.727 766.602 887.636C768.027 889.515 769.133 891.061 769.92 892.273H770.83V857.909H781.557V951H771.193V940.273H769.92C769.133 941.545 768.011 943.152 766.557 945.091C765.102 947 763.027 948.712 760.33 950.227C757.633 951.712 754.042 952.455 749.557 952.455ZM751.011 942.818C755.314 942.818 758.951 941.697 761.92 939.455C764.89 937.182 767.148 934.045 768.693 930.045C770.239 926.015 771.011 921.364 771.011 916.091C771.011 910.879 770.254 906.318 768.739 902.409C767.223 898.47 764.981 895.409 762.011 893.227C759.042 891.015 755.375 889.909 751.011 889.909C746.466 889.909 742.678 891.076 739.648 893.409C736.648 895.712 734.39 898.848 732.875 902.818C731.39 906.758 730.648 911.182 730.648 916.091C730.648 921.061 731.405 925.576 732.92 929.636C734.466 933.667 736.739 936.879 739.739 939.273C742.769 941.636 746.527 942.818 751.011 942.818Z" fill="white"/>
<path d="M3852.82 238.182V142.182H3863.18V153.273H3864.45C3865.24 152.061 3866.33 150.515 3867.73 148.636C3869.15 146.727 3871.18 145.03 3873.82 143.545C3876.48 142.03 3880.09 141.273 3884.64 141.273C3890.52 141.273 3895.7 142.742 3900.18 145.682C3904.67 148.621 3908.17 152.788 3910.68 158.182C3913.2 163.576 3914.45 169.939 3914.45 177.273C3914.45 184.667 3913.2 191.076 3910.68 196.5C3908.17 201.894 3904.68 206.076 3900.23 209.045C3895.77 211.985 3890.64 213.455 3884.82 213.455C3880.33 213.455 3876.74 212.712 3874.05 211.227C3871.35 209.712 3869.27 208 3867.82 206.091C3866.36 204.152 3865.24 202.545 3864.45 201.273H3863.55V238.182H3852.82ZM3863.36 177.091C3863.36 182.364 3864.14 187.015 3865.68 191.045C3867.23 195.045 3869.48 198.182 3872.45 200.455C3875.42 202.697 3879.06 203.818 3883.36 203.818C3887.85 203.818 3891.59 202.636 3894.59 200.273C3897.62 197.879 3899.89 194.667 3901.41 190.636C3902.95 186.576 3903.73 182.061 3903.73 177.091C3903.73 172.182 3902.97 167.758 3901.45 163.818C3899.97 159.848 3897.71 156.712 3894.68 154.409C3891.68 152.076 3887.91 150.909 3883.36 150.909C3879 150.909 3875.33 152.015 3872.36 154.227C3869.39 156.409 3867.15 159.47 3865.64 163.409C3864.12 167.318 3863.36 171.879 3863.36 177.091ZM3959.18 213.455C3952.88 213.455 3947.35 211.955 3942.59 208.955C3937.86 205.955 3934.17 201.758 3931.5 196.364C3928.86 190.97 3927.55 184.667 3927.55 177.455C3927.55 170.182 3928.86 163.833 3931.5 158.409C3934.17 152.985 3937.86 148.773 3942.59 145.773C3947.35 142.773 3952.88 141.273 3959.18 141.273C3965.48 141.273 3971 142.773 3975.73 145.773C3980.48 148.773 3984.18 152.985 3986.82 158.409C3989.48 163.833 3990.82 170.182 3990.82 177.455C3990.82 184.667 3989.48 190.97 3986.82 196.364C3984.18 201.758 3980.48 205.955 3975.73 208.955C3971 211.955 3965.48 213.455 3959.18 213.455ZM3959.18 203.818C3963.97 203.818 3967.91 202.591 3971 200.136C3974.09 197.682 3976.38 194.455 3977.86 190.455C3979.35 186.455 3980.09 182.121 3980.09 177.455C3980.09 172.788 3979.35 168.439 3977.86 164.409C3976.38 160.379 3974.09 157.121 3971 154.636C3967.91 152.152 3963.97 150.909 3959.18 150.909C3954.39 150.909 3950.45 152.152 3947.36 154.636C3944.27 157.121 3941.98 160.379 3940.5 164.409C3939.02 168.439 3938.27 172.788 3938.27 177.455C3938.27 182.121 3939.02 186.455 3940.5 190.455C3941.98 194.455 3944.27 197.682 3947.36 200.136C3950.45 202.591 3954.39 203.818 3959.18 203.818ZM4056.65 157.818L4047.01 160.545C4046.41 158.939 4045.51 157.379 4044.33 155.864C4043.18 154.318 4041.6 153.045 4039.6 152.045C4037.6 151.045 4035.04 150.545 4031.92 150.545C4027.65 150.545 4024.09 151.53 4021.24 153.5C4018.42 155.439 4017.01 157.909 4017.01 160.909C4017.01 163.576 4017.98 165.682 4019.92 167.227C4021.86 168.773 4024.89 170.061 4029.01 171.091L4039.38 173.636C4045.62 175.152 4050.27 177.47 4053.33 180.591C4056.39 183.682 4057.92 187.667 4057.92 192.545C4057.92 196.545 4056.77 200.121 4054.47 203.273C4052.19 206.424 4049.01 208.909 4044.92 210.727C4040.83 212.545 4036.07 213.455 4030.65 213.455C4023.53 213.455 4017.63 211.909 4012.97 208.818C4008.3 205.727 4005.34 201.212 4004.1 195.273L4014.28 192.727C4015.25 196.485 4017.09 199.303 4019.78 201.182C4022.51 203.061 4026.07 204 4030.47 204C4035.47 204 4039.44 202.939 4042.38 200.818C4045.34 198.667 4046.83 196.091 4046.83 193.091C4046.83 190.667 4045.98 188.636 4044.28 187C4042.59 185.333 4039.98 184.091 4036.47 183.273L4024.83 180.545C4018.44 179.03 4013.74 176.682 4010.74 173.5C4007.77 170.288 4006.28 166.273 4006.28 161.455C4006.28 157.515 4007.39 154.03 4009.6 151C4011.84 147.97 4014.89 145.591 4018.74 143.864C4022.62 142.136 4027.01 141.273 4031.92 141.273C4038.83 141.273 4044.25 142.788 4048.19 145.818C4052.16 148.848 4054.98 152.848 4056.65 157.818ZM4104.43 142.182V151.273H4068.25V142.182H4104.43ZM4078.8 125.455H4089.52V192C4089.52 195.03 4089.96 197.303 4090.84 198.818C4091.75 200.303 4092.9 201.303 4094.3 201.818C4095.72 202.303 4097.22 202.545 4098.8 202.545C4099.98 202.545 4100.95 202.485 4101.7 202.364C4102.46 202.212 4103.07 202.091 4103.52 202L4105.7 211.636C4104.98 211.909 4103.96 212.182 4102.66 212.455C4101.36 212.758 4099.7 212.909 4097.7 212.909C4094.67 212.909 4091.7 212.258 4088.8 210.955C4085.92 209.652 4083.52 207.667 4081.61 205C4079.73 202.333 4078.8 198.97 4078.8 194.909V125.455Z" fill="#1E1E1E"/>
<path d="M339.818 183.455V142.182H350.545V212H339.818V200.182H339.091C337.455 203.727 334.909 206.742 331.455 209.227C328 211.682 323.636 212.909 318.364 212.909C314 212.909 310.121 211.955 306.727 210.045C303.333 208.106 300.667 205.197 298.727 201.318C296.788 197.409 295.818 192.485 295.818 186.545V142.182H306.545V185.818C306.545 190.909 307.97 194.97 310.818 198C313.697 201.03 317.364 202.545 321.818 202.545C324.485 202.545 327.197 201.864 329.955 200.5C332.742 199.136 335.076 197.045 336.955 194.227C338.864 191.409 339.818 187.818 339.818 183.455ZM419.648 157.818L410.011 160.545C409.405 158.939 408.511 157.379 407.33 155.864C406.178 154.318 404.602 153.045 402.602 152.045C400.602 151.045 398.042 150.545 394.92 150.545C390.648 150.545 387.087 151.53 384.239 153.5C381.42 155.439 380.011 157.909 380.011 160.909C380.011 163.576 380.981 165.682 382.92 167.227C384.86 168.773 387.89 170.061 392.011 171.091L402.375 173.636C408.617 175.152 413.269 177.47 416.33 180.591C419.39 183.682 420.92 187.667 420.92 192.545C420.92 196.545 419.769 200.121 417.466 203.273C415.193 206.424 412.011 208.909 407.92 210.727C403.83 212.545 399.072 213.455 393.648 213.455C386.527 213.455 380.633 211.909 375.966 208.818C371.299 205.727 368.345 201.212 367.102 195.273L377.284 192.727C378.254 196.485 380.087 199.303 382.784 201.182C385.511 203.061 389.072 204 393.466 204C398.466 204 402.436 202.939 405.375 200.818C408.345 198.667 409.83 196.091 409.83 193.091C409.83 190.667 408.981 188.636 407.284 187C405.587 185.333 402.981 184.091 399.466 183.273L387.83 180.545C381.436 179.03 376.739 176.682 373.739 173.5C370.769 170.288 369.284 166.273 369.284 161.455C369.284 157.515 370.39 154.03 372.602 151C374.845 147.97 377.89 145.591 381.739 143.864C385.617 142.136 390.011 141.273 394.92 141.273C401.83 141.273 407.254 142.788 411.193 145.818C415.163 148.848 417.981 152.848 419.648 157.818ZM466.341 213.455C459.614 213.455 453.811 211.97 448.932 209C444.083 206 440.341 201.818 437.705 196.455C435.098 191.061 433.795 184.788 433.795 177.636C433.795 170.485 435.098 164.182 437.705 158.727C440.341 153.242 444.008 148.97 448.705 145.909C453.432 142.818 458.947 141.273 465.25 141.273C468.886 141.273 472.477 141.879 476.023 143.091C479.568 144.303 482.795 146.273 485.705 149C488.614 151.697 490.932 155.273 492.659 159.727C494.386 164.182 495.25 169.667 495.25 176.182V180.727H441.432V171.455H484.341C484.341 167.515 483.553 164 481.977 160.909C480.432 157.818 478.22 155.379 475.341 153.591C472.492 151.803 469.129 150.909 465.25 150.909C460.977 150.909 457.28 151.97 454.159 154.091C451.068 156.182 448.689 158.909 447.023 162.273C445.356 165.636 444.523 169.242 444.523 173.091V179.273C444.523 184.545 445.432 189.015 447.25 192.682C449.098 196.318 451.659 199.091 454.932 201C458.205 202.879 462.008 203.818 466.341 203.818C469.159 203.818 471.705 203.424 473.977 202.636C476.28 201.818 478.265 200.606 479.932 199C481.598 197.364 482.886 195.333 483.795 192.909L494.159 195.818C493.068 199.333 491.235 202.424 488.659 205.091C486.083 207.727 482.902 209.788 479.114 211.273C475.326 212.727 471.068 213.455 466.341 213.455ZM511.568 212V142.182H521.932V152.727H522.659C523.932 149.273 526.235 146.47 529.568 144.318C532.902 142.167 536.659 141.091 540.841 141.091C541.629 141.091 542.614 141.106 543.795 141.136C544.977 141.167 545.871 141.212 546.477 141.273V152.182C546.114 152.091 545.28 151.955 543.977 151.773C542.705 151.561 541.356 151.455 539.932 151.455C536.538 151.455 533.508 152.167 530.841 153.591C528.205 154.985 526.114 156.924 524.568 159.409C523.053 161.864 522.295 164.667 522.295 167.818V212H511.568ZM608.648 157.818L599.011 160.545C598.405 158.939 597.511 157.379 596.33 155.864C595.178 154.318 593.602 153.045 591.602 152.045C589.602 151.045 587.042 150.545 583.92 150.545C579.648 150.545 576.087 151.53 573.239 153.5C570.42 155.439 569.011 157.909 569.011 160.909C569.011 163.576 569.981 165.682 571.92 167.227C573.86 168.773 576.89 170.061 581.011 171.091L591.375 173.636C597.617 175.152 602.269 177.47 605.33 180.591C608.39 183.682 609.92 187.667 609.92 192.545C609.92 196.545 608.769 200.121 606.466 203.273C604.193 206.424 601.011 208.909 596.92 210.727C592.83 212.545 588.072 213.455 582.648 213.455C575.527 213.455 569.633 211.909 564.966 208.818C560.299 205.727 557.345 201.212 556.102 195.273L566.284 192.727C567.254 196.485 569.087 199.303 571.784 201.182C574.511 203.061 578.072 204 582.466 204C587.466 204 591.436 202.939 594.375 200.818C597.345 198.667 598.83 196.091 598.83 193.091C598.83 190.667 597.981 188.636 596.284 187C594.587 185.333 591.981 184.091 588.466 183.273L576.83 180.545C570.436 179.03 565.739 176.682 562.739 173.5C559.769 170.288 558.284 166.273 558.284 161.455C558.284 157.515 559.39 154.03 561.602 151C563.845 147.97 566.89 145.591 570.739 143.864C574.617 142.136 579.011 141.273 583.92 141.273C590.83 141.273 596.254 142.788 600.193 145.818C604.163 148.848 606.981 152.848 608.648 157.818Z" fill="#1E1E1E"/>
<path d="M4492.82 951V881.182H4503.55V951H4492.82ZM4498.27 869.545C4496.18 869.545 4494.38 868.833 4492.86 867.409C4491.38 865.985 4490.64 864.273 4490.64 862.273C4490.64 860.273 4491.38 858.561 4492.86 857.136C4494.38 855.712 4496.18 855 4498.27 855C4500.36 855 4502.15 855.712 4503.64 857.136C4505.15 858.561 4505.91 860.273 4505.91 862.273C4505.91 864.273 4505.15 865.985 4503.64 867.409C4502.15 868.833 4500.36 869.545 4498.27 869.545ZM4549.56 952.455C4543.74 952.455 4538.6 950.985 4534.15 948.045C4529.69 945.076 4526.21 940.894 4523.69 935.5C4521.18 930.076 4519.92 923.667 4519.92 916.273C4519.92 908.939 4521.18 902.576 4523.69 897.182C4526.21 891.788 4529.71 887.621 4534.19 884.682C4538.68 881.742 4543.86 880.273 4549.74 880.273C4554.28 880.273 4557.88 881.03 4560.51 882.545C4563.18 884.03 4565.21 885.727 4566.6 887.636C4568.03 889.515 4569.13 891.061 4569.92 892.273H4570.83V857.909H4581.56V951H4571.19V940.273H4569.92C4569.13 941.545 4568.01 943.152 4566.56 945.091C4565.1 947 4563.03 948.712 4560.33 950.227C4557.63 951.712 4554.04 952.455 4549.56 952.455ZM4551.01 942.818C4555.31 942.818 4558.95 941.697 4561.92 939.455C4564.89 937.182 4567.15 934.045 4568.69 930.045C4570.24 926.015 4571.01 921.364 4571.01 916.091C4571.01 910.879 4570.25 906.318 4568.74 902.409C4567.22 898.47 4564.98 895.409 4562.01 893.227C4559.04 891.015 4555.38 889.909 4551.01 889.909C4546.47 889.909 4542.68 891.076 4539.65 893.409C4536.65 895.712 4534.39 898.848 4532.88 902.818C4531.39 906.758 4530.65 911.182 4530.65 916.091C4530.65 921.061 4531.41 925.576 4532.92 929.636C4534.47 933.667 4536.74 936.879 4539.74 939.273C4542.77 941.636 4546.53 942.818 4551.01 942.818Z" fill="white"/>
<path d="M4492.82 1291.18V1195.18H4503.18V1206.27H4504.45C4505.24 1205.06 4506.33 1203.52 4507.73 1201.64C4509.15 1199.73 4511.18 1198.03 4513.82 1196.55C4516.48 1195.03 4520.09 1194.27 4524.64 1194.27C4530.52 1194.27 4535.7 1195.74 4540.18 1198.68C4544.67 1201.62 4548.17 1205.79 4550.68 1211.18C4553.2 1216.58 4554.45 1222.94 4554.45 1230.27C4554.45 1237.67 4553.2 1244.08 4550.68 1249.5C4548.17 1254.89 4544.68 1259.08 4540.23 1262.05C4535.77 1264.98 4530.64 1266.45 4524.82 1266.45C4520.33 1266.45 4516.74 1265.71 4514.05 1264.23C4511.35 1262.71 4509.27 1261 4507.82 1259.09C4506.36 1257.15 4505.24 1255.55 4504.45 1254.27H4503.55V1291.18H4492.82ZM4503.36 1230.09C4503.36 1235.36 4504.14 1240.02 4505.68 1244.05C4507.23 1248.05 4509.48 1251.18 4512.45 1253.45C4515.42 1255.7 4519.06 1256.82 4523.36 1256.82C4527.85 1256.82 4531.59 1255.64 4534.59 1253.27C4537.62 1250.88 4539.89 1247.67 4541.41 1243.64C4542.95 1239.58 4543.73 1235.06 4543.73 1230.09C4543.73 1225.18 4542.97 1220.76 4541.45 1216.82C4539.97 1212.85 4537.71 1209.71 4534.68 1207.41C4531.68 1205.08 4527.91 1203.91 4523.36 1203.91C4519 1203.91 4515.33 1205.02 4512.36 1207.23C4509.39 1209.41 4507.15 1212.47 4505.64 1216.41C4504.12 1220.32 4503.36 1224.88 4503.36 1230.09ZM4599.18 1266.45C4592.88 1266.45 4587.35 1264.95 4582.59 1261.95C4577.86 1258.95 4574.17 1254.76 4571.5 1249.36C4568.86 1243.97 4567.55 1237.67 4567.55 1230.45C4567.55 1223.18 4568.86 1216.83 4571.5 1211.41C4574.17 1205.98 4577.86 1201.77 4582.59 1198.77C4587.35 1195.77 4592.88 1194.27 4599.18 1194.27C4605.48 1194.27 4611 1195.77 4615.73 1198.77C4620.48 1201.77 4624.18 1205.98 4626.82 1211.41C4629.48 1216.83 4630.82 1223.18 4630.82 1230.45C4630.82 1237.67 4629.48 1243.97 4626.82 1249.36C4624.18 1254.76 4620.48 1258.95 4615.73 1261.95C4611 1264.95 4605.48 1266.45 4599.18 1266.45ZM4599.18 1256.82C4603.97 1256.82 4607.91 1255.59 4611 1253.14C4614.09 1250.68 4616.38 1247.45 4617.86 1243.45C4619.35 1239.45 4620.09 1235.12 4620.09 1230.45C4620.09 1225.79 4619.35 1221.44 4617.86 1217.41C4616.38 1213.38 4614.09 1210.12 4611 1207.64C4607.91 1205.15 4603.97 1203.91 4599.18 1203.91C4594.39 1203.91 4590.45 1205.15 4587.36 1207.64C4584.27 1210.12 4581.98 1213.38 4580.5 1217.41C4579.02 1221.44 4578.27 1225.79 4578.27 1230.45C4578.27 1235.12 4579.02 1239.45 4580.5 1243.45C4581.98 1247.45 4584.27 1250.68 4587.36 1253.14C4590.45 1255.59 4594.39 1256.82 4599.18 1256.82ZM4696.65 1210.82L4687.01 1213.55C4686.41 1211.94 4685.51 1210.38 4684.33 1208.86C4683.18 1207.32 4681.6 1206.05 4679.6 1205.05C4677.6 1204.05 4675.04 1203.55 4671.92 1203.55C4667.65 1203.55 4664.09 1204.53 4661.24 1206.5C4658.42 1208.44 4657.01 1210.91 4657.01 1213.91C4657.01 1216.58 4657.98 1218.68 4659.92 1220.23C4661.86 1221.77 4664.89 1223.06 4669.01 1224.09L4679.38 1226.64C4685.62 1228.15 4690.27 1230.47 4693.33 1233.59C4696.39 1236.68 4697.92 1240.67 4697.92 1245.55C4697.92 1249.55 4696.77 1253.12 4694.47 1256.27C4692.19 1259.42 4689.01 1261.91 4684.92 1263.73C4680.83 1265.55 4676.07 1266.45 4670.65 1266.45C4663.53 1266.45 4657.63 1264.91 4652.97 1261.82C4648.3 1258.73 4645.34 1254.21 4644.1 1248.27L4654.28 1245.73C4655.25 1249.48 4657.09 1252.3 4659.78 1254.18C4662.51 1256.06 4666.07 1257 4670.47 1257C4675.47 1257 4679.44 1255.94 4682.38 1253.82C4685.34 1251.67 4686.83 1249.09 4686.83 1246.09C4686.83 1243.67 4685.98 1241.64 4684.28 1240C4682.59 1238.33 4679.98 1237.09 4676.47 1236.27L4664.83 1233.55C4658.44 1232.03 4653.74 1229.68 4650.74 1226.5C4647.77 1223.29 4646.28 1219.27 4646.28 1214.45C4646.28 1210.52 4647.39 1207.03 4649.6 1204C4651.84 1200.97 4654.89 1198.59 4658.74 1196.86C4662.62 1195.14 4667.01 1194.27 4671.92 1194.27C4678.83 1194.27 4684.25 1195.79 4688.19 1198.82C4692.16 1201.85 4694.98 1205.85 4696.65 1210.82ZM4744.43 1195.18V1204.27H4708.25V1195.18H4744.43ZM4718.8 1178.45H4729.52V1245C4729.52 1248.03 4729.96 1250.3 4730.84 1251.82C4731.75 1253.3 4732.9 1254.3 4734.3 1254.82C4735.72 1255.3 4737.22 1255.55 4738.8 1255.55C4739.98 1255.55 4740.95 1255.48 4741.7 1255.36C4742.46 1255.21 4743.07 1255.09 4743.52 1255L4745.7 1264.64C4744.98 1264.91 4743.96 1265.18 4742.66 1265.45C4741.36 1265.76 4739.7 1265.91 4737.7 1265.91C4734.67 1265.91 4731.7 1265.26 4728.8 1263.95C4725.92 1262.65 4723.52 1260.67 4721.61 1258C4719.73 1255.33 4718.8 1251.97 4718.8 1247.91V1178.45Z" fill="white"/>
<path d="M4536.82 1550.45V1509.18H4547.55V1579H4536.82V1567.18H4536.09C4534.45 1570.73 4531.91 1573.74 4528.45 1576.23C4525 1578.68 4520.64 1579.91 4515.36 1579.91C4511 1579.91 4507.12 1578.95 4503.73 1577.05C4500.33 1575.11 4497.67 1572.2 4495.73 1568.32C4493.79 1564.41 4492.82 1559.48 4492.82 1553.55V1509.18H4503.55V1552.82C4503.55 1557.91 4504.97 1561.97 4507.82 1565C4510.7 1568.03 4514.36 1569.55 4518.82 1569.55C4521.48 1569.55 4524.2 1568.86 4526.95 1567.5C4529.74 1566.14 4532.08 1564.05 4533.95 1561.23C4535.86 1558.41 4536.82 1554.82 4536.82 1550.45ZM4616.65 1524.82L4607.01 1527.55C4606.41 1525.94 4605.51 1524.38 4604.33 1522.86C4603.18 1521.32 4601.6 1520.05 4599.6 1519.05C4597.6 1518.05 4595.04 1517.55 4591.92 1517.55C4587.65 1517.55 4584.09 1518.53 4581.24 1520.5C4578.42 1522.44 4577.01 1524.91 4577.01 1527.91C4577.01 1530.58 4577.98 1532.68 4579.92 1534.23C4581.86 1535.77 4584.89 1537.06 4589.01 1538.09L4599.38 1540.64C4605.62 1542.15 4610.27 1544.47 4613.33 1547.59C4616.39 1550.68 4617.92 1554.67 4617.92 1559.55C4617.92 1563.55 4616.77 1567.12 4614.47 1570.27C4612.19 1573.42 4609.01 1575.91 4604.92 1577.73C4600.83 1579.55 4596.07 1580.45 4590.65 1580.45C4583.53 1580.45 4577.63 1578.91 4572.97 1575.82C4568.3 1572.73 4565.34 1568.21 4564.1 1562.27L4574.28 1559.73C4575.25 1563.48 4577.09 1566.3 4579.78 1568.18C4582.51 1570.06 4586.07 1571 4590.47 1571C4595.47 1571 4599.44 1569.94 4602.38 1567.82C4605.34 1565.67 4606.83 1563.09 4606.83 1560.09C4606.83 1557.67 4605.98 1555.64 4604.28 1554C4602.59 1552.33 4599.98 1551.09 4596.47 1550.27L4584.83 1547.55C4578.44 1546.03 4573.74 1543.68 4570.74 1540.5C4567.77 1537.29 4566.28 1533.27 4566.28 1528.45C4566.28 1524.52 4567.39 1521.03 4569.6 1518C4571.84 1514.97 4574.89 1512.59 4578.74 1510.86C4582.62 1509.14 4587.01 1508.27 4591.92 1508.27C4598.83 1508.27 4604.25 1509.79 4608.19 1512.82C4612.16 1515.85 4614.98 1519.85 4616.65 1524.82ZM4663.34 1580.45C4656.61 1580.45 4650.81 1578.97 4645.93 1576C4641.08 1573 4637.34 1568.82 4634.7 1563.45C4632.1 1558.06 4630.8 1551.79 4630.8 1544.64C4630.8 1537.48 4632.1 1531.18 4634.7 1525.73C4637.34 1520.24 4641.01 1515.97 4645.7 1512.91C4650.43 1509.82 4655.95 1508.27 4662.25 1508.27C4665.89 1508.27 4669.48 1508.88 4673.02 1510.09C4676.57 1511.3 4679.8 1513.27 4682.7 1516C4685.61 1518.7 4687.93 1522.27 4689.66 1526.73C4691.39 1531.18 4692.25 1536.67 4692.25 1543.18V1547.73H4638.43V1538.45H4681.34C4681.34 1534.52 4680.55 1531 4678.98 1527.91C4677.43 1524.82 4675.22 1522.38 4672.34 1520.59C4669.49 1518.8 4666.13 1517.91 4662.25 1517.91C4657.98 1517.91 4654.28 1518.97 4651.16 1521.09C4648.07 1523.18 4645.69 1525.91 4644.02 1529.27C4642.36 1532.64 4641.52 1536.24 4641.52 1540.09V1546.27C4641.52 1551.55 4642.43 1556.02 4644.25 1559.68C4646.1 1563.32 4648.66 1566.09 4651.93 1568C4655.2 1569.88 4659.01 1570.82 4663.34 1570.82C4666.16 1570.82 4668.7 1570.42 4670.98 1569.64C4673.28 1568.82 4675.27 1567.61 4676.93 1566C4678.6 1564.36 4679.89 1562.33 4680.8 1559.91L4691.16 1562.82C4690.07 1566.33 4688.23 1569.42 4685.66 1572.09C4683.08 1574.73 4679.9 1576.79 4676.11 1578.27C4672.33 1579.73 4668.07 1580.45 4663.34 1580.45ZM4708.57 1579V1509.18H4718.93V1519.73H4719.66C4720.93 1516.27 4723.23 1513.47 4726.57 1511.32C4729.9 1509.17 4733.66 1508.09 4737.84 1508.09C4738.63 1508.09 4739.61 1508.11 4740.8 1508.14C4741.98 1508.17 4742.87 1508.21 4743.48 1508.27V1519.18C4743.11 1519.09 4742.28 1518.95 4740.98 1518.77C4739.7 1518.56 4738.36 1518.45 4736.93 1518.45C4733.54 1518.45 4730.51 1519.17 4727.84 1520.59C4725.2 1521.98 4723.11 1523.92 4721.57 1526.41C4720.05 1528.86 4719.3 1531.67 4719.3 1534.82V1579H4708.57ZM4804.38 1579V1589H4746.19V1579H4804.38ZM4818.44 1579V1509.18H4829.17V1579H4818.44ZM4823.9 1497.55C4821.81 1497.55 4820 1496.83 4818.49 1495.41C4817 1493.98 4816.26 1492.27 4816.26 1490.27C4816.26 1488.27 4817 1486.56 4818.49 1485.14C4820 1483.71 4821.81 1483 4823.9 1483C4825.99 1483 4827.78 1483.71 4829.26 1485.14C4830.78 1486.56 4831.53 1488.27 4831.53 1490.27C4831.53 1492.27 4830.78 1493.98 4829.26 1495.41C4827.78 1496.83 4825.99 1497.55 4823.9 1497.55ZM4875.18 1580.45C4869.36 1580.45 4864.23 1578.98 4859.77 1576.05C4855.32 1573.08 4851.83 1568.89 4849.32 1563.5C4846.8 1558.08 4845.55 1551.67 4845.55 1544.27C4845.55 1536.94 4846.8 1530.58 4849.32 1525.18C4851.83 1519.79 4855.33 1515.62 4859.82 1512.68C4864.3 1509.74 4869.48 1508.27 4875.36 1508.27C4879.91 1508.27 4883.5 1509.03 4886.14 1510.55C4888.8 1512.03 4890.83 1513.73 4892.23 1515.64C4893.65 1517.52 4894.76 1519.06 4895.55 1520.27H4896.45V1485.91H4907.18V1579H4896.82V1568.27H4895.55C4894.76 1569.55 4893.64 1571.15 4892.18 1573.09C4890.73 1575 4888.65 1576.71 4885.95 1578.23C4883.26 1579.71 4879.67 1580.45 4875.18 1580.45ZM4876.64 1570.82C4880.94 1570.82 4884.58 1569.7 4887.55 1567.45C4890.52 1565.18 4892.77 1562.05 4894.32 1558.05C4895.86 1554.02 4896.64 1549.36 4896.64 1544.09C4896.64 1538.88 4895.88 1534.32 4894.36 1530.41C4892.85 1526.47 4890.61 1523.41 4887.64 1521.23C4884.67 1519.02 4881 1517.91 4876.64 1517.91C4872.09 1517.91 4868.3 1519.08 4865.27 1521.41C4862.27 1523.71 4860.02 1526.85 4858.5 1530.82C4857.02 1534.76 4856.27 1539.18 4856.27 1544.09C4856.27 1549.06 4857.03 1553.58 4858.55 1557.64C4860.09 1561.67 4862.36 1564.88 4865.36 1567.27C4868.39 1569.64 4872.15 1570.82 4876.64 1570.82Z" fill="white"/>
<path d="M719.182 1266.45C713.364 1266.45 708.227 1264.98 703.773 1262.05C699.318 1259.08 695.833 1254.89 693.318 1249.5C690.803 1244.08 689.545 1237.67 689.545 1230.27C689.545 1222.94 690.803 1216.58 693.318 1211.18C695.833 1205.79 699.333 1201.62 703.818 1198.68C708.303 1195.74 713.485 1194.27 719.364 1194.27C723.909 1194.27 727.5 1195.03 730.136 1196.55C732.803 1198.03 734.833 1199.73 736.227 1201.64C737.652 1203.52 738.758 1205.06 739.545 1206.27H740.455V1171.91H751.182V1265H740.818V1254.27H739.545C738.758 1255.55 737.636 1257.15 736.182 1259.09C734.727 1261 732.652 1262.71 729.955 1264.23C727.258 1265.71 723.667 1266.45 719.182 1266.45ZM720.636 1256.82C724.939 1256.82 728.576 1255.7 731.545 1253.45C734.515 1251.18 736.773 1248.05 738.318 1244.05C739.864 1240.02 740.636 1235.36 740.636 1230.09C740.636 1224.88 739.879 1220.32 738.364 1216.41C736.848 1212.47 734.606 1209.41 731.636 1207.23C728.667 1205.02 725 1203.91 720.636 1203.91C716.091 1203.91 712.303 1205.08 709.273 1207.41C706.273 1209.71 704.015 1212.85 702.5 1216.82C701.015 1220.76 700.273 1225.18 700.273 1230.09C700.273 1235.06 701.03 1239.58 702.545 1243.64C704.091 1247.67 706.364 1250.88 709.364 1253.27C712.394 1255.64 716.152 1256.82 720.636 1256.82ZM772.318 1265V1195.18H783.045V1265H772.318ZM777.773 1183.55C775.682 1183.55 773.879 1182.83 772.364 1181.41C770.879 1179.98 770.136 1178.27 770.136 1176.27C770.136 1174.27 770.879 1172.56 772.364 1171.14C773.879 1169.71 775.682 1169 777.773 1169C779.864 1169 781.652 1169.71 783.136 1171.14C784.652 1172.56 785.409 1174.27 785.409 1176.27C785.409 1178.27 784.652 1179.98 783.136 1181.41C781.652 1182.83 779.864 1183.55 777.773 1183.55ZM852.148 1210.82L842.511 1213.55C841.905 1211.94 841.011 1210.38 839.83 1208.86C838.678 1207.32 837.102 1206.05 835.102 1205.05C833.102 1204.05 830.542 1203.55 827.42 1203.55C823.148 1203.55 819.587 1204.53 816.739 1206.5C813.92 1208.44 812.511 1210.91 812.511 1213.91C812.511 1216.58 813.481 1218.68 815.42 1220.23C817.36 1221.77 820.39 1223.06 824.511 1224.09L834.875 1226.64C841.117 1228.15 845.769 1230.47 848.83 1233.59C851.89 1236.68 853.42 1240.67 853.42 1245.55C853.42 1249.55 852.269 1253.12 849.966 1256.27C847.693 1259.42 844.511 1261.91 840.42 1263.73C836.33 1265.55 831.572 1266.45 826.148 1266.45C819.027 1266.45 813.133 1264.91 808.466 1261.82C803.799 1258.73 800.845 1254.21 799.602 1248.27L809.784 1245.73C810.754 1249.48 812.587 1252.3 815.284 1254.18C818.011 1256.06 821.572 1257 825.966 1257C830.966 1257 834.936 1255.94 837.875 1253.82C840.845 1251.67 842.33 1249.09 842.33 1246.09C842.33 1243.67 841.481 1241.64 839.784 1240C838.087 1238.33 835.481 1237.09 831.966 1236.27L820.33 1233.55C813.936 1232.03 809.239 1229.68 806.239 1226.5C803.269 1223.29 801.784 1219.27 801.784 1214.45C801.784 1210.52 802.89 1207.03 805.102 1204C807.345 1200.97 810.39 1198.59 814.239 1196.86C818.117 1195.14 822.511 1194.27 827.42 1194.27C834.33 1194.27 839.754 1195.79 843.693 1198.82C847.663 1201.85 850.481 1205.85 852.148 1210.82ZM869.568 1291.18V1195.18H879.932V1206.27H881.205C881.992 1205.06 883.083 1203.52 884.477 1201.64C885.902 1199.73 887.932 1198.03 890.568 1196.55C893.235 1195.03 896.841 1194.27 901.386 1194.27C907.265 1194.27 912.447 1195.74 916.932 1198.68C921.417 1201.62 924.917 1205.79 927.432 1211.18C929.947 1216.58 931.205 1222.94 931.205 1230.27C931.205 1237.67 929.947 1244.08 927.432 1249.5C924.917 1254.89 921.432 1259.08 916.977 1262.05C912.523 1264.98 907.386 1266.45 901.568 1266.45C897.083 1266.45 893.492 1265.71 890.795 1264.23C888.098 1262.71 886.023 1261 884.568 1259.09C883.114 1257.15 881.992 1255.55 881.205 1254.27H880.295V1291.18H869.568ZM880.114 1230.09C880.114 1235.36 880.886 1240.02 882.432 1244.05C883.977 1248.05 886.235 1251.18 889.205 1253.45C892.174 1255.7 895.811 1256.82 900.114 1256.82C904.598 1256.82 908.341 1255.64 911.341 1253.27C914.371 1250.88 916.644 1247.67 918.159 1243.64C919.705 1239.58 920.477 1235.06 920.477 1230.09C920.477 1225.18 919.72 1220.76 918.205 1216.82C916.72 1212.85 914.462 1209.71 911.432 1207.41C908.432 1205.08 904.659 1203.91 900.114 1203.91C895.75 1203.91 892.083 1205.02 889.114 1207.23C886.144 1209.41 883.902 1212.47 882.386 1216.41C880.871 1220.32 880.114 1224.88 880.114 1230.09ZM958.295 1171.91V1265H947.568V1171.91H958.295ZM998.489 1266.64C994.064 1266.64 990.049 1265.8 986.443 1264.14C982.837 1262.44 979.973 1260 977.852 1256.82C975.731 1253.61 974.67 1249.73 974.67 1245.18C974.67 1241.18 975.458 1237.94 977.034 1235.45C978.61 1232.94 980.716 1230.97 983.352 1229.55C985.989 1228.12 988.898 1227.06 992.08 1226.36C995.292 1225.64 998.519 1225.06 1001.76 1224.64C1006 1224.09 1009.44 1223.68 1012.08 1223.41C1014.75 1223.11 1016.69 1222.61 1017.9 1221.91C1019.14 1221.21 1019.76 1220 1019.76 1218.27V1217.91C1019.76 1213.42 1018.53 1209.94 1016.08 1207.45C1013.66 1204.97 1009.97 1203.73 1005.03 1203.73C999.913 1203.73 995.898 1204.85 992.989 1207.09C990.08 1209.33 988.034 1211.73 986.852 1214.27L976.67 1210.64C978.489 1206.39 980.913 1203.09 983.943 1200.73C987.004 1198.33 990.337 1196.67 993.943 1195.73C997.58 1194.76 1001.16 1194.27 1004.67 1194.27C1006.91 1194.27 1009.49 1194.55 1012.4 1195.09C1015.34 1195.61 1018.17 1196.68 1020.9 1198.32C1023.66 1199.95 1025.94 1202.42 1027.76 1205.73C1029.58 1209.03 1030.49 1213.45 1030.49 1219V1265H1019.76V1255.55H1019.22C1018.49 1257.06 1017.28 1258.68 1015.58 1260.41C1013.88 1262.14 1011.63 1263.61 1008.81 1264.82C1005.99 1266.03 1002.55 1266.64 998.489 1266.64ZM1000.12 1257C1004.37 1257 1007.94 1256.17 1010.85 1254.5C1013.79 1252.83 1016 1250.68 1017.49 1248.05C1019 1245.41 1019.76 1242.64 1019.76 1239.73V1229.91C1019.31 1230.45 1018.31 1230.95 1016.76 1231.41C1015.25 1231.83 1013.49 1232.21 1011.49 1232.55C1009.52 1232.85 1007.59 1233.12 1005.72 1233.36C1003.87 1233.58 1002.37 1233.76 1001.22 1233.91C998.428 1234.27 995.822 1234.86 993.398 1235.68C991.004 1236.47 989.064 1237.67 987.58 1239.27C986.125 1240.85 985.398 1243 985.398 1245.73C985.398 1249.45 986.777 1252.27 989.534 1254.18C992.322 1256.06 995.852 1257 1000.12 1257ZM1054.48 1291.18C1052.66 1291.18 1051.04 1291.03 1049.61 1290.73C1048.19 1290.45 1047.2 1290.18 1046.66 1289.91L1049.39 1280.45C1051.99 1281.12 1054.3 1281.36 1056.3 1281.18C1058.3 1281 1060.07 1280.11 1061.61 1278.5C1063.19 1276.92 1064.63 1274.36 1065.93 1270.82L1067.93 1265.36L1042.11 1195.18H1053.75L1073.02 1250.82H1073.75L1093.02 1195.18H1104.66L1075.02 1275.18C1073.69 1278.79 1072.04 1281.77 1070.07 1284.14C1068.1 1286.53 1065.81 1288.3 1063.2 1289.45C1060.63 1290.61 1057.72 1291.18 1054.48 1291.18ZM1156.88 1265V1275H1098.69V1265H1156.88ZM1183.17 1223V1265H1172.44V1195.18H1182.81V1206.09H1183.72C1185.35 1202.55 1187.84 1199.7 1191.17 1197.55C1194.5 1195.36 1198.81 1194.27 1204.08 1194.27C1208.81 1194.27 1212.94 1195.24 1216.49 1197.18C1220.03 1199.09 1222.79 1202 1224.76 1205.91C1226.73 1209.79 1227.72 1214.7 1227.72 1220.64V1265H1216.99V1221.36C1216.99 1215.88 1215.56 1211.61 1212.72 1208.55C1209.87 1205.45 1205.96 1203.91 1200.99 1203.91C1197.56 1203.91 1194.5 1204.65 1191.81 1206.14C1189.14 1207.62 1187.03 1209.79 1185.49 1212.64C1183.94 1215.48 1183.17 1218.94 1183.17 1223ZM1267.86 1266.64C1263.44 1266.64 1259.42 1265.8 1255.82 1264.14C1252.21 1262.44 1249.35 1260 1247.23 1256.82C1245.11 1253.61 1244.05 1249.73 1244.05 1245.18C1244.05 1241.18 1244.83 1237.94 1246.41 1235.45C1247.98 1232.94 1250.09 1230.97 1252.73 1229.55C1255.36 1228.12 1258.27 1227.06 1261.45 1226.36C1264.67 1225.64 1267.89 1225.06 1271.14 1224.64C1275.38 1224.09 1278.82 1223.68 1281.45 1223.41C1284.12 1223.11 1286.06 1222.61 1287.27 1221.91C1288.52 1221.21 1289.14 1220 1289.14 1218.27V1217.91C1289.14 1213.42 1287.91 1209.94 1285.45 1207.45C1283.03 1204.97 1279.35 1203.73 1274.41 1203.73C1269.29 1203.73 1265.27 1204.85 1262.36 1207.09C1259.45 1209.33 1257.41 1211.73 1256.23 1214.27L1246.05 1210.64C1247.86 1206.39 1250.29 1203.09 1253.32 1200.73C1256.38 1198.33 1259.71 1196.67 1263.32 1195.73C1266.95 1194.76 1270.53 1194.27 1274.05 1194.27C1276.29 1194.27 1278.86 1194.55 1281.77 1195.09C1284.71 1195.61 1287.55 1196.68 1290.27 1198.32C1293.03 1199.95 1295.32 1202.42 1297.14 1205.73C1298.95 1209.03 1299.86 1213.45 1299.86 1219V1265H1289.14V1255.55H1288.59C1287.86 1257.06 1286.65 1258.68 1284.95 1260.41C1283.26 1262.14 1281 1263.61 1278.18 1264.82C1275.36 1266.03 1271.92 1266.64 1267.86 1266.64ZM1269.5 1257C1273.74 1257 1277.32 1256.17 1280.23 1254.5C1283.17 1252.83 1285.38 1250.68 1286.86 1248.05C1288.38 1245.41 1289.14 1242.64 1289.14 1239.73V1229.91C1288.68 1230.45 1287.68 1230.95 1286.14 1231.41C1284.62 1231.83 1282.86 1232.21 1280.86 1232.55C1278.89 1232.85 1276.97 1233.12 1275.09 1233.36C1273.24 1233.58 1271.74 1233.76 1270.59 1233.91C1267.8 1234.27 1265.2 1234.86 1262.77 1235.68C1260.38 1236.47 1258.44 1237.67 1256.95 1239.27C1255.5 1240.85 1254.77 1243 1254.77 1245.73C1254.77 1249.45 1256.15 1252.27 1258.91 1254.18C1261.7 1256.06 1265.23 1257 1269.5 1257ZM1319.44 1265V1195.18H1329.81V1206.09H1330.72C1332.17 1202.36 1334.52 1199.47 1337.76 1197.41C1341 1195.32 1344.9 1194.27 1349.44 1194.27C1354.05 1194.27 1357.88 1195.32 1360.94 1197.41C1364.03 1199.47 1366.44 1202.36 1368.17 1206.09H1368.9C1370.69 1202.48 1373.37 1199.62 1376.94 1197.5C1380.52 1195.35 1384.81 1194.27 1389.81 1194.27C1396.05 1194.27 1401.16 1196.23 1405.12 1200.14C1409.09 1204.02 1411.08 1210.06 1411.08 1218.27V1265H1400.35V1218.27C1400.35 1213.12 1398.94 1209.44 1396.12 1207.23C1393.31 1205.02 1389.99 1203.91 1386.17 1203.91C1381.26 1203.91 1377.46 1205.39 1374.76 1208.36C1372.06 1211.3 1370.72 1215.03 1370.72 1219.55V1265H1359.81V1217.18C1359.81 1213.21 1358.52 1210.02 1355.94 1207.59C1353.37 1205.14 1350.05 1203.91 1345.99 1203.91C1343.2 1203.91 1340.59 1204.65 1338.17 1206.14C1335.78 1207.62 1333.84 1209.68 1332.35 1212.32C1330.9 1214.92 1330.17 1217.94 1330.17 1221.36V1265H1319.44ZM1459.97 1266.45C1453.24 1266.45 1447.44 1264.97 1442.56 1262C1437.71 1259 1433.97 1254.82 1431.33 1249.45C1428.72 1244.06 1427.42 1237.79 1427.42 1230.64C1427.42 1223.48 1428.72 1217.18 1431.33 1211.73C1433.97 1206.24 1437.63 1201.97 1442.33 1198.91C1447.06 1195.82 1452.57 1194.27 1458.88 1194.27C1462.51 1194.27 1466.1 1194.88 1469.65 1196.09C1473.19 1197.3 1476.42 1199.27 1479.33 1202C1482.24 1204.7 1484.56 1208.27 1486.28 1212.73C1488.01 1217.18 1488.88 1222.67 1488.88 1229.18V1233.73H1435.06V1224.45H1477.97C1477.97 1220.52 1477.18 1217 1475.6 1213.91C1474.06 1210.82 1471.84 1208.38 1468.97 1206.59C1466.12 1204.8 1462.75 1203.91 1458.88 1203.91C1454.6 1203.91 1450.91 1204.97 1447.78 1207.09C1444.69 1209.18 1442.31 1211.91 1440.65 1215.27C1438.98 1218.64 1438.15 1222.24 1438.15 1226.09V1232.27C1438.15 1237.55 1439.06 1242.02 1440.88 1245.68C1442.72 1249.32 1445.28 1252.09 1448.56 1254C1451.83 1255.88 1455.63 1256.82 1459.97 1256.82C1462.78 1256.82 1465.33 1256.42 1467.6 1255.64C1469.91 1254.82 1471.89 1253.61 1473.56 1252C1475.22 1250.36 1476.51 1248.33 1477.42 1245.91L1487.78 1248.82C1486.69 1252.33 1484.86 1255.42 1482.28 1258.09C1479.71 1260.73 1476.53 1262.79 1472.74 1264.27C1468.95 1265.73 1464.69 1266.45 1459.97 1266.45Z" fill="white"/>
<path d="M722.091 1580.45C715.364 1580.45 709.561 1578.97 704.682 1576C699.833 1573 696.091 1568.82 693.455 1563.45C690.848 1558.06 689.545 1551.79 689.545 1544.64C689.545 1537.48 690.848 1531.18 693.455 1525.73C696.091 1520.24 699.758 1515.97 704.455 1512.91C709.182 1509.82 714.697 1508.27 721 1508.27C724.636 1508.27 728.227 1508.88 731.773 1510.09C735.318 1511.3 738.545 1513.27 741.455 1516C744.364 1518.7 746.682 1522.27 748.409 1526.73C750.136 1531.18 751 1536.67 751 1543.18V1547.73H697.182V1538.45H740.091C740.091 1534.52 739.303 1531 737.727 1527.91C736.182 1524.82 733.97 1522.38 731.091 1520.59C728.242 1518.8 724.879 1517.91 721 1517.91C716.727 1517.91 713.03 1518.97 709.909 1521.09C706.818 1523.18 704.439 1525.91 702.773 1529.27C701.106 1532.64 700.273 1536.24 700.273 1540.09V1546.27C700.273 1551.55 701.182 1556.02 703 1559.68C704.848 1563.32 707.409 1566.09 710.682 1568C713.955 1569.88 717.758 1570.82 722.091 1570.82C724.909 1570.82 727.455 1570.42 729.727 1569.64C732.03 1568.82 734.015 1567.61 735.682 1566C737.348 1564.36 738.636 1562.33 739.545 1559.91L749.909 1562.82C748.818 1566.33 746.985 1569.42 744.409 1572.09C741.833 1574.73 738.652 1576.79 734.864 1578.27C731.076 1579.73 726.818 1580.45 722.091 1580.45ZM767.318 1579V1509.18H777.682V1520.09H778.591C780.045 1516.36 782.394 1513.47 785.636 1511.41C788.879 1509.32 792.773 1508.27 797.318 1508.27C801.924 1508.27 805.758 1509.32 808.818 1511.41C811.909 1513.47 814.318 1516.36 816.045 1520.09H816.773C818.561 1516.48 821.242 1513.62 824.818 1511.5C828.394 1509.35 832.682 1508.27 837.682 1508.27C843.924 1508.27 849.03 1510.23 853 1514.14C856.97 1518.02 858.955 1524.06 858.955 1532.27V1579H848.227V1532.27C848.227 1527.12 846.818 1523.44 844 1521.23C841.182 1519.02 837.864 1517.91 834.045 1517.91C829.136 1517.91 825.333 1519.39 822.636 1522.36C819.939 1525.3 818.591 1529.03 818.591 1533.55V1579H807.682V1531.18C807.682 1527.21 806.394 1524.02 803.818 1521.59C801.242 1519.14 797.924 1517.91 793.864 1517.91C791.076 1517.91 788.47 1518.65 786.045 1520.14C783.652 1521.62 781.712 1523.68 780.227 1526.32C778.773 1528.92 778.045 1531.94 778.045 1535.36V1579H767.318ZM899.114 1580.64C894.689 1580.64 890.674 1579.8 887.068 1578.14C883.462 1576.44 880.598 1574 878.477 1570.82C876.356 1567.61 875.295 1563.73 875.295 1559.18C875.295 1555.18 876.083 1551.94 877.659 1549.45C879.235 1546.94 881.341 1544.97 883.977 1543.55C886.614 1542.12 889.523 1541.06 892.705 1540.36C895.917 1539.64 899.144 1539.06 902.386 1538.64C906.629 1538.09 910.068 1537.68 912.705 1537.41C915.371 1537.11 917.311 1536.61 918.523 1535.91C919.765 1535.21 920.386 1534 920.386 1532.27V1531.91C920.386 1527.42 919.159 1523.94 916.705 1521.45C914.28 1518.97 910.598 1517.73 905.659 1517.73C900.538 1517.73 896.523 1518.85 893.614 1521.09C890.705 1523.33 888.659 1525.73 887.477 1528.27L877.295 1524.64C879.114 1520.39 881.538 1517.09 884.568 1514.73C887.629 1512.33 890.962 1510.67 894.568 1509.73C898.205 1508.76 901.78 1508.27 905.295 1508.27C907.538 1508.27 910.114 1508.55 913.023 1509.09C915.962 1509.61 918.795 1510.68 921.523 1512.32C924.28 1513.95 926.568 1516.42 928.386 1519.73C930.205 1523.03 931.114 1527.45 931.114 1533V1579H920.386V1569.55H919.841C919.114 1571.06 917.902 1572.68 916.205 1574.41C914.508 1576.14 912.25 1577.61 909.432 1578.82C906.614 1580.03 903.174 1580.64 899.114 1580.64ZM900.75 1571C904.992 1571 908.568 1570.17 911.477 1568.5C914.417 1566.83 916.629 1564.68 918.114 1562.05C919.629 1559.41 920.386 1556.64 920.386 1553.73V1543.91C919.932 1544.45 918.932 1544.95 917.386 1545.41C915.871 1545.83 914.114 1546.21 912.114 1546.55C910.144 1546.85 908.22 1547.12 906.341 1547.36C904.492 1547.58 902.992 1547.76 901.841 1547.91C899.053 1548.27 896.447 1548.86 894.023 1549.68C891.629 1550.47 889.689 1551.67 888.205 1553.27C886.75 1554.85 886.023 1557 886.023 1559.73C886.023 1563.45 887.402 1566.27 890.159 1568.18C892.947 1570.06 896.477 1571 900.75 1571ZM950.693 1579V1509.18H961.42V1579H950.693ZM956.148 1497.55C954.057 1497.55 952.254 1496.83 950.739 1495.41C949.254 1493.98 948.511 1492.27 948.511 1490.27C948.511 1488.27 949.254 1486.56 950.739 1485.14C952.254 1483.71 954.057 1483 956.148 1483C958.239 1483 960.027 1483.71 961.511 1485.14C963.027 1486.56 963.784 1488.27 963.784 1490.27C963.784 1492.27 963.027 1493.98 961.511 1495.41C960.027 1496.83 958.239 1497.55 956.148 1497.55ZM991.795 1485.91V1579H981.068V1485.91H991.795Z" fill="white"/>
<path d="M692.818 1919.18V1823.18H703.182V1834.27H704.455C705.242 1833.06 706.333 1831.52 707.727 1829.64C709.152 1827.73 711.182 1826.03 713.818 1824.55C716.485 1823.03 720.091 1822.27 724.636 1822.27C730.515 1822.27 735.697 1823.74 740.182 1826.68C744.667 1829.62 748.167 1833.79 750.682 1839.18C753.197 1844.58 754.455 1850.94 754.455 1858.27C754.455 1865.67 753.197 1872.08 750.682 1877.5C748.167 1882.89 744.682 1887.08 740.227 1890.05C735.773 1892.98 730.636 1894.45 724.818 1894.45C720.333 1894.45 716.742 1893.71 714.045 1892.23C711.348 1890.71 709.273 1889 707.818 1887.09C706.364 1885.15 705.242 1883.55 704.455 1882.27H703.545V1919.18H692.818ZM703.364 1858.09C703.364 1863.36 704.136 1868.02 705.682 1872.05C707.227 1876.05 709.485 1879.18 712.455 1881.45C715.424 1883.7 719.061 1884.82 723.364 1884.82C727.848 1884.82 731.591 1883.64 734.591 1881.27C737.621 1878.88 739.894 1875.67 741.409 1871.64C742.955 1867.58 743.727 1863.06 743.727 1858.09C743.727 1853.18 742.97 1848.76 741.455 1844.82C739.97 1840.85 737.712 1837.71 734.682 1835.41C731.682 1833.08 727.909 1831.91 723.364 1831.91C719 1831.91 715.333 1833.02 712.364 1835.23C709.394 1837.41 707.152 1840.47 705.636 1844.41C704.121 1848.32 703.364 1852.88 703.364 1858.09ZM791.364 1894.64C786.939 1894.64 782.924 1893.8 779.318 1892.14C775.712 1890.44 772.848 1888 770.727 1884.82C768.606 1881.61 767.545 1877.73 767.545 1873.18C767.545 1869.18 768.333 1865.94 769.909 1863.45C771.485 1860.94 773.591 1858.97 776.227 1857.55C778.864 1856.12 781.773 1855.06 784.955 1854.36C788.167 1853.64 791.394 1853.06 794.636 1852.64C798.879 1852.09 802.318 1851.68 804.955 1851.41C807.621 1851.11 809.561 1850.61 810.773 1849.91C812.015 1849.21 812.636 1848 812.636 1846.27V1845.91C812.636 1841.42 811.409 1837.94 808.955 1835.45C806.53 1832.97 802.848 1831.73 797.909 1831.73C792.788 1831.73 788.773 1832.85 785.864 1835.09C782.955 1837.33 780.909 1839.73 779.727 1842.27L769.545 1838.64C771.364 1834.39 773.788 1831.09 776.818 1828.73C779.879 1826.33 783.212 1824.67 786.818 1823.73C790.455 1822.76 794.03 1822.27 797.545 1822.27C799.788 1822.27 802.364 1822.55 805.273 1823.09C808.212 1823.61 811.045 1824.68 813.773 1826.32C816.53 1827.95 818.818 1830.42 820.636 1833.73C822.455 1837.03 823.364 1841.45 823.364 1847V1893H812.636V1883.55H812.091C811.364 1885.06 810.152 1886.68 808.455 1888.41C806.758 1890.14 804.5 1891.61 801.682 1892.82C798.864 1894.03 795.424 1894.64 791.364 1894.64ZM793 1885C797.242 1885 800.818 1884.17 803.727 1882.5C806.667 1880.83 808.879 1878.68 810.364 1876.05C811.879 1873.41 812.636 1870.64 812.636 1867.73V1857.91C812.182 1858.45 811.182 1858.95 809.636 1859.41C808.121 1859.83 806.364 1860.21 804.364 1860.55C802.394 1860.85 800.47 1861.12 798.591 1861.36C796.742 1861.58 795.242 1861.76 794.091 1861.91C791.303 1862.27 788.697 1862.86 786.273 1863.68C783.879 1864.47 781.939 1865.67 780.455 1867.27C779 1868.85 778.273 1871 778.273 1873.73C778.273 1877.45 779.652 1880.27 782.409 1882.18C785.197 1884.06 788.727 1885 793 1885ZM892.398 1838.82L882.761 1841.55C882.155 1839.94 881.261 1838.38 880.08 1836.86C878.928 1835.32 877.352 1834.05 875.352 1833.05C873.352 1832.05 870.792 1831.55 867.67 1831.55C863.398 1831.55 859.837 1832.53 856.989 1834.5C854.17 1836.44 852.761 1838.91 852.761 1841.91C852.761 1844.58 853.731 1846.68 855.67 1848.23C857.61 1849.77 860.64 1851.06 864.761 1852.09L875.125 1854.64C881.367 1856.15 886.019 1858.47 889.08 1861.59C892.14 1864.68 893.67 1868.67 893.67 1873.55C893.67 1877.55 892.519 1881.12 890.216 1884.27C887.943 1887.42 884.761 1889.91 880.67 1891.73C876.58 1893.55 871.822 1894.45 866.398 1894.45C859.277 1894.45 853.383 1892.91 848.716 1889.82C844.049 1886.73 841.095 1882.21 839.852 1876.27L850.034 1873.73C851.004 1877.48 852.837 1880.3 855.534 1882.18C858.261 1884.06 861.822 1885 866.216 1885C871.216 1885 875.186 1883.94 878.125 1881.82C881.095 1879.67 882.58 1877.09 882.58 1874.09C882.58 1871.67 881.731 1869.64 880.034 1868C878.337 1866.33 875.731 1865.09 872.216 1864.27L860.58 1861.55C854.186 1860.03 849.489 1857.68 846.489 1854.5C843.519 1851.29 842.034 1847.27 842.034 1842.45C842.034 1838.52 843.14 1835.03 845.352 1832C847.595 1828.97 850.64 1826.59 854.489 1824.86C858.367 1823.14 862.761 1822.27 867.67 1822.27C874.58 1822.27 880.004 1823.79 883.943 1826.82C887.913 1829.85 890.731 1833.85 892.398 1838.82ZM959.273 1838.82L949.636 1841.55C949.03 1839.94 948.136 1838.38 946.955 1836.86C945.803 1835.32 944.227 1834.05 942.227 1833.05C940.227 1832.05 937.667 1831.55 934.545 1831.55C930.273 1831.55 926.712 1832.53 923.864 1834.5C921.045 1836.44 919.636 1838.91 919.636 1841.91C919.636 1844.58 920.606 1846.68 922.545 1848.23C924.485 1849.77 927.515 1851.06 931.636 1852.09L942 1854.64C948.242 1856.15 952.894 1858.47 955.955 1861.59C959.015 1864.68 960.545 1868.67 960.545 1873.55C960.545 1877.55 959.394 1881.12 957.091 1884.27C954.818 1887.42 951.636 1889.91 947.545 1891.73C943.455 1893.55 938.697 1894.45 933.273 1894.45C926.152 1894.45 920.258 1892.91 915.591 1889.82C910.924 1886.73 907.97 1882.21 906.727 1876.27L916.909 1873.73C917.879 1877.48 919.712 1880.3 922.409 1882.18C925.136 1884.06 928.697 1885 933.091 1885C938.091 1885 942.061 1883.94 945 1881.82C947.97 1879.67 949.455 1877.09 949.455 1874.09C949.455 1871.67 948.606 1869.64 946.909 1868C945.212 1866.33 942.606 1865.09 939.091 1864.27L927.455 1861.55C921.061 1860.03 916.364 1857.68 913.364 1854.5C910.394 1851.29 908.909 1847.27 908.909 1842.45C908.909 1838.52 910.015 1835.03 912.227 1832C914.47 1828.97 917.515 1826.59 921.364 1824.86C925.242 1823.14 929.636 1822.27 934.545 1822.27C941.455 1822.27 946.879 1823.79 950.818 1826.82C954.788 1829.85 957.606 1833.85 959.273 1838.82ZM992.511 1893L971.239 1823.18H982.511L997.602 1876.64H998.33L1013.24 1823.18H1024.69L1039.42 1876.45H1040.15L1055.24 1823.18H1066.51L1045.24 1893H1034.69L1019.42 1839.36H1018.33L1003.06 1893H992.511ZM1106.68 1894.45C1100.38 1894.45 1094.85 1892.95 1090.09 1889.95C1085.36 1886.95 1081.67 1882.76 1079 1877.36C1076.36 1871.97 1075.05 1865.67 1075.05 1858.45C1075.05 1851.18 1076.36 1844.83 1079 1839.41C1081.67 1833.98 1085.36 1829.77 1090.09 1826.77C1094.85 1823.77 1100.38 1822.27 1106.68 1822.27C1112.98 1822.27 1118.5 1823.77 1123.23 1826.77C1127.98 1829.77 1131.68 1833.98 1134.32 1839.41C1136.98 1844.83 1138.32 1851.18 1138.32 1858.45C1138.32 1865.67 1136.98 1871.97 1134.32 1877.36C1131.68 1882.76 1127.98 1886.95 1123.23 1889.95C1118.5 1892.95 1112.98 1894.45 1106.68 1894.45ZM1106.68 1884.82C1111.47 1884.82 1115.41 1883.59 1118.5 1881.14C1121.59 1878.68 1123.88 1875.45 1125.36 1871.45C1126.85 1867.45 1127.59 1863.12 1127.59 1858.45C1127.59 1853.79 1126.85 1849.44 1125.36 1845.41C1123.88 1841.38 1121.59 1838.12 1118.5 1835.64C1115.41 1833.15 1111.47 1831.91 1106.68 1831.91C1101.89 1831.91 1097.95 1833.15 1094.86 1835.64C1091.77 1838.12 1089.48 1841.38 1088 1845.41C1086.52 1849.44 1085.77 1853.79 1085.77 1858.45C1085.77 1863.12 1086.52 1867.45 1088 1871.45C1089.48 1875.45 1091.77 1878.68 1094.86 1881.14C1097.95 1883.59 1101.89 1884.82 1106.68 1884.82ZM1154.69 1893V1823.18H1165.06V1833.73H1165.78C1167.06 1830.27 1169.36 1827.47 1172.69 1825.32C1176.03 1823.17 1179.78 1822.09 1183.97 1822.09C1184.75 1822.09 1185.74 1822.11 1186.92 1822.14C1188.1 1822.17 1189 1822.21 1189.6 1822.27V1833.18C1189.24 1833.09 1188.41 1832.95 1187.1 1832.77C1185.83 1832.56 1184.48 1832.45 1183.06 1832.45C1179.66 1832.45 1176.63 1833.17 1173.97 1834.59C1171.33 1835.98 1169.24 1837.92 1167.69 1840.41C1166.18 1842.86 1165.42 1845.67 1165.42 1848.82V1893H1154.69ZM1226.56 1894.45C1220.74 1894.45 1215.6 1892.98 1211.15 1890.05C1206.69 1887.08 1203.21 1882.89 1200.69 1877.5C1198.18 1872.08 1196.92 1865.67 1196.92 1858.27C1196.92 1850.94 1198.18 1844.58 1200.69 1839.18C1203.21 1833.79 1206.71 1829.62 1211.19 1826.68C1215.68 1823.74 1220.86 1822.27 1226.74 1822.27C1231.28 1822.27 1234.88 1823.03 1237.51 1824.55C1240.18 1826.03 1242.21 1827.73 1243.6 1829.64C1245.03 1831.52 1246.13 1833.06 1246.92 1834.27H1247.83V1799.91H1258.56V1893H1248.19V1882.27H1246.92C1246.13 1883.55 1245.01 1885.15 1243.56 1887.09C1242.1 1889 1240.03 1890.71 1237.33 1892.23C1234.63 1893.71 1231.04 1894.45 1226.56 1894.45ZM1228.01 1884.82C1232.31 1884.82 1235.95 1883.7 1238.92 1881.45C1241.89 1879.18 1244.15 1876.05 1245.69 1872.05C1247.24 1868.02 1248.01 1863.36 1248.01 1858.09C1248.01 1852.88 1247.25 1848.32 1245.74 1844.41C1244.22 1840.47 1241.98 1837.41 1239.01 1835.23C1236.04 1833.02 1232.38 1831.91 1228.01 1831.91C1223.47 1831.91 1219.68 1833.08 1216.65 1835.41C1213.65 1837.71 1211.39 1840.85 1209.88 1844.82C1208.39 1848.76 1207.65 1853.18 1207.65 1858.09C1207.65 1863.06 1208.41 1867.58 1209.92 1871.64C1211.47 1875.67 1213.74 1878.88 1216.74 1881.27C1219.77 1883.64 1223.53 1884.82 1228.01 1884.82Z" fill="white"/>
</svg>
