<svg width="6198" height="2345" viewBox="0 0 6198 2345" fill="none" xmlns="http://www.w3.org/2000/svg">
<rect width="6198" height="2345" fill="white"/>
<rect x="152" y="385" width="2210" height="1892" fill="white" stroke="#030202" stroke-width="12"/>
<rect x="3725" y="385" width="2210" height="1892" fill="#1E1E1E" stroke="white" stroke-width="12"/>
<path d="M597.818 889V819.182H608.545V889H597.818ZM603.273 807.545C601.182 807.545 599.379 806.833 597.864 805.409C596.379 803.985 595.636 802.273 595.636 800.273C595.636 798.273 596.379 796.561 597.864 795.136C599.379 793.712 601.182 793 603.273 793C605.364 793 607.152 793.712 608.636 795.136C610.152 796.561 610.909 798.273 610.909 800.273C610.909 802.273 610.152 803.985 608.636 805.409C607.152 806.833 605.364 807.545 603.273 807.545ZM654.557 890.455C648.739 890.455 643.602 888.985 639.148 886.045C634.693 883.076 631.208 878.894 628.693 873.5C626.178 868.076 624.92 861.667 624.92 854.273C624.92 846.939 626.178 840.576 628.693 835.182C631.208 829.788 634.708 825.621 639.193 822.682C643.678 819.742 648.86 818.273 654.739 818.273C659.284 818.273 662.875 819.03 665.511 820.545C668.178 822.03 670.208 823.727 671.602 825.636C673.027 827.515 674.133 829.061 674.92 830.273H675.83V795.909H686.557V889H676.193V878.273H674.92C674.133 879.545 673.011 881.152 671.557 883.091C670.102 885 668.027 886.712 665.33 888.227C662.633 889.712 659.042 890.455 654.557 890.455ZM656.011 880.818C660.314 880.818 663.951 879.697 666.92 877.455C669.89 875.182 672.148 872.045 673.693 868.045C675.239 864.015 676.011 859.364 676.011 854.091C676.011 848.879 675.254 844.318 673.739 840.409C672.223 836.47 669.981 833.409 667.011 831.227C664.042 829.015 660.375 827.909 656.011 827.909C651.466 827.909 647.678 829.076 644.648 831.409C641.648 833.712 639.39 836.848 637.875 840.818C636.39 844.758 635.648 849.182 635.648 854.091C635.648 859.061 636.405 863.576 637.92 867.636C639.466 871.667 641.739 874.879 644.739 877.273C647.769 879.636 651.527 880.818 656.011 880.818Z" fill="black"/>
<path d="M627.091 125.455C620.364 125.455 614.561 123.97 609.682 121C604.833 118 601.091 113.818 598.455 108.455C595.848 103.061 594.545 96.7879 594.545 89.6364C594.545 82.4848 595.848 76.1818 598.455 70.7273C601.091 65.2424 604.758 60.9697 609.455 57.9091C614.182 54.8182 619.697 53.2727 626 53.2727C629.636 53.2727 633.227 53.8788 636.773 55.0909C640.318 56.303 643.545 58.2727 646.455 61C649.364 63.697 651.682 67.2727 653.409 71.7273C655.136 76.1818 656 81.6667 656 88.1818V92.7273H602.182V83.4545H645.091C645.091 79.5151 644.303 76 642.727 72.9091C641.182 69.8182 638.97 67.3788 636.091 65.5909C633.242 63.803 629.879 62.9091 626 62.9091C621.727 62.9091 618.03 63.9697 614.909 66.0909C611.818 68.1818 609.439 70.9091 607.773 74.2727C606.106 77.6364 605.273 81.2424 605.273 85.0909V91.2727C605.273 96.5455 606.182 101.015 608 104.682C609.848 108.318 612.409 111.091 615.682 113C618.955 114.879 622.758 115.818 627.091 115.818C629.909 115.818 632.455 115.424 634.727 114.636C637.03 113.818 639.015 112.606 640.682 111C642.348 109.364 643.636 107.333 644.545 104.909L654.909 107.818C653.818 111.333 651.985 114.424 649.409 117.091C646.833 119.727 643.652 121.788 639.864 123.273C636.076 124.727 631.818 125.455 627.091 125.455ZM683.045 82V124H672.318V54.1818H682.682V65.0909H683.591C685.227 61.5455 687.712 58.697 691.045 56.5455C694.379 54.3636 698.682 53.2727 703.955 53.2727C708.682 53.2727 712.818 54.2424 716.364 56.1818C719.909 58.0909 722.667 61 724.636 64.9091C726.606 68.7879 727.591 73.697 727.591 79.6364V124H716.864V80.3636C716.864 74.8788 715.439 70.6061 712.591 67.5455C709.742 64.4545 705.833 62.9091 700.864 62.9091C697.439 62.9091 694.379 63.6515 691.682 65.1364C689.015 66.6212 686.909 68.7879 685.364 71.6364C683.818 74.4848 683.045 77.9394 683.045 82ZM777.557 54.1818V63.2727H741.375V54.1818H777.557ZM751.92 37.4545H762.648V104C762.648 107.03 763.087 109.303 763.966 110.818C764.875 112.303 766.027 113.303 767.42 113.818C768.845 114.303 770.345 114.545 771.92 114.545C773.102 114.545 774.072 114.485 774.83 114.364C775.587 114.212 776.193 114.091 776.648 114L778.83 123.636C778.102 123.909 777.087 124.182 775.784 124.455C774.481 124.758 772.83 124.909 770.83 124.909C767.799 124.909 764.83 124.258 761.92 122.955C759.042 121.652 756.648 119.667 754.739 117C752.86 114.333 751.92 110.97 751.92 106.909V37.4545ZM793.693 124V54.1818H804.057V64.7273H804.784C806.057 61.2727 808.36 58.4697 811.693 56.3182C815.027 54.1667 818.784 53.0909 822.966 53.0909C823.754 53.0909 824.739 53.1061 825.92 53.1364C827.102 53.1667 827.996 53.2121 828.602 53.2727V64.1818C828.239 64.0909 827.405 63.9545 826.102 63.7727C824.83 63.5606 823.481 63.4545 822.057 63.4545C818.663 63.4545 815.633 64.1667 812.966 65.5909C810.33 66.9848 808.239 68.9242 806.693 71.4091C805.178 73.8636 804.42 76.6667 804.42 79.8182V124H793.693ZM850.352 150.182C848.534 150.182 846.913 150.03 845.489 149.727C844.064 149.455 843.08 149.182 842.534 148.909L845.261 139.455C847.867 140.121 850.17 140.364 852.17 140.182C854.17 140 855.943 139.106 857.489 137.5C859.064 135.924 860.504 133.364 861.807 129.818L863.807 124.364L837.989 54.1818H849.625L868.898 109.818H869.625L888.898 54.1818H900.534L870.898 134.182C869.564 137.788 867.913 140.773 865.943 143.136C863.973 145.53 861.686 147.303 859.08 148.455C856.504 149.606 853.595 150.182 850.352 150.182Z" fill="#1E1E1E"/>
<path d="M4586.55 82V124H4575.82V54.1818H4586.18V65.0909H4587.09C4588.73 61.5455 4591.21 58.697 4594.55 56.5455C4597.88 54.3636 4602.18 53.2727 4607.45 53.2727C4612.18 53.2727 4616.32 54.2424 4619.86 56.1818C4623.41 58.0909 4626.17 61 4628.14 64.9091C4630.11 68.7879 4631.09 73.697 4631.09 79.6364V124H4620.36V80.3636C4620.36 74.8788 4618.94 70.6061 4616.09 67.5455C4613.24 64.4545 4609.33 62.9091 4604.36 62.9091C4600.94 62.9091 4597.88 63.6515 4595.18 65.1364C4592.52 66.6212 4590.41 68.7879 4588.86 71.6364C4587.32 74.4848 4586.55 77.9394 4586.55 82ZM4679.06 125.455C4672.75 125.455 4667.22 123.955 4662.47 120.955C4657.74 117.955 4654.04 113.758 4651.38 108.364C4648.74 102.97 4647.42 96.6667 4647.42 89.4545C4647.42 82.1818 4648.74 75.8333 4651.38 70.4091C4654.04 64.9848 4657.74 60.7727 4662.47 57.7727C4667.22 54.7727 4672.75 53.2727 4679.06 53.2727C4685.36 53.2727 4690.88 54.7727 4695.6 57.7727C4700.36 60.7727 4704.06 64.9848 4706.69 70.4091C4709.36 75.8333 4710.69 82.1818 4710.69 89.4545C4710.69 96.6667 4709.36 102.97 4706.69 108.364C4704.06 113.758 4700.36 117.955 4695.6 120.955C4690.88 123.955 4685.36 125.455 4679.06 125.455ZM4679.06 115.818C4683.84 115.818 4687.78 114.591 4690.88 112.136C4693.97 109.682 4696.25 106.455 4697.74 102.455C4699.22 98.4545 4699.97 94.1212 4699.97 89.4545C4699.97 84.7879 4699.22 80.4394 4697.74 76.4091C4696.25 72.3788 4693.97 69.1212 4690.88 66.6364C4687.78 64.1515 4683.84 62.9091 4679.06 62.9091C4674.27 62.9091 4670.33 64.1515 4667.24 66.6364C4664.15 69.1212 4661.86 72.3788 4660.38 76.4091C4658.89 80.4394 4658.15 84.7879 4658.15 89.4545C4658.15 94.1212 4658.89 98.4545 4660.38 102.455C4661.86 106.455 4664.15 109.682 4667.24 112.136C4670.33 114.591 4674.27 115.818 4679.06 115.818ZM4757.43 54.1818V63.2727H4721.25V54.1818H4757.43ZM4731.8 37.4545H4742.52V104C4742.52 107.03 4742.96 109.303 4743.84 110.818C4744.75 112.303 4745.9 113.303 4747.3 113.818C4748.72 114.303 4750.22 114.545 4751.8 114.545C4752.98 114.545 4753.95 114.485 4754.7 114.364C4755.46 114.212 4756.07 114.091 4756.52 114L4758.7 123.636C4757.98 123.909 4756.96 124.182 4755.66 124.455C4754.36 124.758 4752.7 124.909 4750.7 124.909C4747.67 124.909 4744.7 124.258 4741.8 122.955C4738.92 121.652 4736.52 119.667 4734.61 117C4732.73 114.333 4731.8 110.97 4731.8 106.909V37.4545ZM4802.09 125.455C4795.36 125.455 4789.56 123.97 4784.68 121C4779.83 118 4776.09 113.818 4773.45 108.455C4770.85 103.061 4769.55 96.7879 4769.55 89.6364C4769.55 82.4848 4770.85 76.1818 4773.45 70.7273C4776.09 65.2424 4779.76 60.9697 4784.45 57.9091C4789.18 54.8182 4794.7 53.2727 4801 53.2727C4804.64 53.2727 4808.23 53.8788 4811.77 55.0909C4815.32 56.303 4818.55 58.2727 4821.45 61C4824.36 63.697 4826.68 67.2727 4828.41 71.7273C4830.14 76.1818 4831 81.6667 4831 88.1818V92.7273H4777.18V83.4545H4820.09C4820.09 79.5151 4819.3 76 4817.73 72.9091C4816.18 69.8182 4813.97 67.3788 4811.09 65.5909C4808.24 63.803 4804.88 62.9091 4801 62.9091C4796.73 62.9091 4793.03 63.9697 4789.91 66.0909C4786.82 68.1818 4784.44 70.9091 4782.77 74.2727C4781.11 77.6364 4780.27 81.2424 4780.27 85.0909V91.2727C4780.27 96.5455 4781.18 101.015 4783 104.682C4784.85 108.318 4787.41 111.091 4790.68 113C4793.95 114.879 4797.76 115.818 4802.09 115.818C4804.91 115.818 4807.45 115.424 4809.73 114.636C4812.03 113.818 4814.02 112.606 4815.68 111C4817.35 109.364 4818.64 107.333 4819.55 104.909L4829.91 107.818C4828.82 111.333 4826.98 114.424 4824.41 117.091C4821.83 119.727 4818.65 121.788 4814.86 123.273C4811.08 124.727 4806.82 125.455 4802.09 125.455Z" fill="#1E1E1E"/>
<path d="M4453.55 847V889H4442.82V819.182H4453.18V830.091H4454.09C4455.73 826.545 4458.21 823.697 4461.55 821.545C4464.88 819.364 4469.18 818.273 4474.45 818.273C4479.18 818.273 4483.32 819.242 4486.86 821.182C4490.41 823.091 4493.17 826 4495.14 829.909C4497.11 833.788 4498.09 838.697 4498.09 844.636V889H4487.36V845.364C4487.36 839.879 4485.94 835.606 4483.09 832.545C4480.24 829.455 4476.33 827.909 4471.36 827.909C4467.94 827.909 4464.88 828.652 4462.18 830.136C4459.52 831.621 4457.41 833.788 4455.86 836.636C4454.32 839.485 4453.55 842.939 4453.55 847ZM4546.06 890.455C4539.75 890.455 4534.22 888.955 4529.47 885.955C4524.74 882.955 4521.04 878.758 4518.38 873.364C4515.74 867.97 4514.42 861.667 4514.42 854.455C4514.42 847.182 4515.74 840.833 4518.38 835.409C4521.04 829.985 4524.74 825.773 4529.47 822.773C4534.22 819.773 4539.75 818.273 4546.06 818.273C4552.36 818.273 4557.88 819.773 4562.6 822.773C4567.36 825.773 4571.06 829.985 4573.69 835.409C4576.36 840.833 4577.69 847.182 4577.69 854.455C4577.69 861.667 4576.36 867.97 4573.69 873.364C4571.06 878.758 4567.36 882.955 4562.6 885.955C4557.88 888.955 4552.36 890.455 4546.06 890.455ZM4546.06 880.818C4550.84 880.818 4554.78 879.591 4557.88 877.136C4560.97 874.682 4563.25 871.455 4564.74 867.455C4566.22 863.455 4566.97 859.121 4566.97 854.455C4566.97 849.788 4566.22 845.439 4564.74 841.409C4563.25 837.379 4560.97 834.121 4557.88 831.636C4554.78 829.152 4550.84 827.909 4546.06 827.909C4541.27 827.909 4537.33 829.152 4534.24 831.636C4531.15 834.121 4528.86 837.379 4527.38 841.409C4525.89 845.439 4525.15 849.788 4525.15 854.455C4525.15 859.121 4525.89 863.455 4527.38 867.455C4528.86 871.455 4531.15 874.682 4534.24 877.136C4537.33 879.591 4541.27 880.818 4546.06 880.818ZM4624.43 819.182V828.273H4588.25V819.182H4624.43ZM4598.8 802.455H4609.52V869C4609.52 872.03 4609.96 874.303 4610.84 875.818C4611.75 877.303 4612.9 878.303 4614.3 878.818C4615.72 879.303 4617.22 879.545 4618.8 879.545C4619.98 879.545 4620.95 879.485 4621.7 879.364C4622.46 879.212 4623.07 879.091 4623.52 879L4625.7 888.636C4624.98 888.909 4623.96 889.182 4622.66 889.455C4621.36 889.758 4619.7 889.909 4617.7 889.909C4614.67 889.909 4611.7 889.258 4608.8 887.955C4605.92 886.652 4603.52 884.667 4601.61 882C4599.73 879.333 4598.8 875.97 4598.8 871.909V802.455ZM4669.09 890.455C4662.36 890.455 4656.56 888.97 4651.68 886C4646.83 883 4643.09 878.818 4640.45 873.455C4637.85 868.061 4636.55 861.788 4636.55 854.636C4636.55 847.485 4637.85 841.182 4640.45 835.727C4643.09 830.242 4646.76 825.97 4651.45 822.909C4656.18 819.818 4661.7 818.273 4668 818.273C4671.64 818.273 4675.23 818.879 4678.77 820.091C4682.32 821.303 4685.55 823.273 4688.45 826C4691.36 828.697 4693.68 832.273 4695.41 836.727C4697.14 841.182 4698 846.667 4698 853.182V857.727H4644.18V848.455H4687.09C4687.09 844.515 4686.3 841 4684.73 837.909C4683.18 834.818 4680.97 832.379 4678.09 830.591C4675.24 828.803 4671.88 827.909 4668 827.909C4663.73 827.909 4660.03 828.97 4656.91 831.091C4653.82 833.182 4651.44 835.909 4649.77 839.273C4648.11 842.636 4647.27 846.242 4647.27 850.091V856.273C4647.27 861.545 4648.18 866.015 4650 869.682C4651.85 873.318 4654.41 876.091 4657.68 878C4660.95 879.879 4664.76 880.818 4669.09 880.818C4671.91 880.818 4674.45 880.424 4676.73 879.636C4679.03 878.818 4681.02 877.606 4682.68 876C4684.35 874.364 4685.64 872.333 4686.55 869.909L4696.91 872.818C4695.82 876.333 4693.98 879.424 4691.41 882.091C4688.83 884.727 4685.65 886.788 4681.86 888.273C4678.08 889.727 4673.82 890.455 4669.09 890.455ZM4762.5 889V899H4704.32V889H4762.5ZM4776.57 889V819.182H4787.3V889H4776.57ZM4782.02 807.545C4779.93 807.545 4778.13 806.833 4776.61 805.409C4775.13 803.985 4774.39 802.273 4774.39 800.273C4774.39 798.273 4775.13 796.561 4776.61 795.136C4778.13 793.712 4779.93 793 4782.02 793C4784.11 793 4785.9 793.712 4787.39 795.136C4788.9 796.561 4789.66 798.273 4789.66 800.273C4789.66 802.273 4788.9 803.985 4787.39 805.409C4785.9 806.833 4784.11 807.545 4782.02 807.545ZM4833.31 890.455C4827.49 890.455 4822.35 888.985 4817.9 886.045C4813.44 883.076 4809.96 878.894 4807.44 873.5C4804.93 868.076 4803.67 861.667 4803.67 854.273C4803.67 846.939 4804.93 840.576 4807.44 835.182C4809.96 829.788 4813.46 825.621 4817.94 822.682C4822.43 819.742 4827.61 818.273 4833.49 818.273C4838.03 818.273 4841.63 819.03 4844.26 820.545C4846.93 822.03 4848.96 823.727 4850.35 825.636C4851.78 827.515 4852.88 829.061 4853.67 830.273H4854.58V795.909H4865.31V889H4854.94V878.273H4853.67C4852.88 879.545 4851.76 881.152 4850.31 883.091C4848.85 885 4846.78 886.712 4844.08 888.227C4841.38 889.712 4837.79 890.455 4833.31 890.455ZM4834.76 880.818C4839.06 880.818 4842.7 879.697 4845.67 877.455C4848.64 875.182 4850.9 872.045 4852.44 868.045C4853.99 864.015 4854.76 859.364 4854.76 854.091C4854.76 848.879 4854 844.318 4852.49 840.409C4850.97 836.47 4848.73 833.409 4845.76 831.227C4842.79 829.015 4839.13 827.909 4834.76 827.909C4830.22 827.909 4826.43 829.076 4823.4 831.409C4820.4 833.712 4818.14 836.848 4816.62 840.818C4815.14 844.758 4814.4 849.182 4814.4 854.091C4814.4 859.061 4815.16 863.576 4816.67 867.636C4818.22 871.667 4820.49 874.879 4823.49 877.273C4826.52 879.636 4830.28 880.818 4834.76 880.818Z" fill="white"/>
<path d="M4453.55 1161V1203H4442.82V1133.18H4453.18V1144.09H4454.09C4455.73 1140.55 4458.21 1137.7 4461.55 1135.55C4464.88 1133.36 4469.18 1132.27 4474.45 1132.27C4479.18 1132.27 4483.32 1133.24 4486.86 1135.18C4490.41 1137.09 4493.17 1140 4495.14 1143.91C4497.11 1147.79 4498.09 1152.7 4498.09 1158.64V1203H4487.36V1159.36C4487.36 1153.88 4485.94 1149.61 4483.09 1146.55C4480.24 1143.45 4476.33 1141.91 4471.36 1141.91C4467.94 1141.91 4464.88 1142.65 4462.18 1144.14C4459.52 1145.62 4457.41 1147.79 4455.86 1150.64C4454.32 1153.48 4453.55 1156.94 4453.55 1161ZM4546.06 1204.45C4539.75 1204.45 4534.22 1202.95 4529.47 1199.95C4524.74 1196.95 4521.04 1192.76 4518.38 1187.36C4515.74 1181.97 4514.42 1175.67 4514.42 1168.45C4514.42 1161.18 4515.74 1154.83 4518.38 1149.41C4521.04 1143.98 4524.74 1139.77 4529.47 1136.77C4534.22 1133.77 4539.75 1132.27 4546.06 1132.27C4552.36 1132.27 4557.88 1133.77 4562.6 1136.77C4567.36 1139.77 4571.06 1143.98 4573.69 1149.41C4576.36 1154.83 4577.69 1161.18 4577.69 1168.45C4577.69 1175.67 4576.36 1181.97 4573.69 1187.36C4571.06 1192.76 4567.36 1196.95 4562.6 1199.95C4557.88 1202.95 4552.36 1204.45 4546.06 1204.45ZM4546.06 1194.82C4550.84 1194.82 4554.78 1193.59 4557.88 1191.14C4560.97 1188.68 4563.25 1185.45 4564.74 1181.45C4566.22 1177.45 4566.97 1173.12 4566.97 1168.45C4566.97 1163.79 4566.22 1159.44 4564.74 1155.41C4563.25 1151.38 4560.97 1148.12 4557.88 1145.64C4554.78 1143.15 4550.84 1141.91 4546.06 1141.91C4541.27 1141.91 4537.33 1143.15 4534.24 1145.64C4531.15 1148.12 4528.86 1151.38 4527.38 1155.41C4525.89 1159.44 4525.15 1163.79 4525.15 1168.45C4525.15 1173.12 4525.89 1177.45 4527.38 1181.45C4528.86 1185.45 4531.15 1188.68 4534.24 1191.14C4537.33 1193.59 4541.27 1194.82 4546.06 1194.82ZM4624.43 1133.18V1142.27H4588.25V1133.18H4624.43ZM4598.8 1116.45H4609.52V1183C4609.52 1186.03 4609.96 1188.3 4610.84 1189.82C4611.75 1191.3 4612.9 1192.3 4614.3 1192.82C4615.72 1193.3 4617.22 1193.55 4618.8 1193.55C4619.98 1193.55 4620.95 1193.48 4621.7 1193.36C4622.46 1193.21 4623.07 1193.09 4623.52 1193L4625.7 1202.64C4624.98 1202.91 4623.96 1203.18 4622.66 1203.45C4621.36 1203.76 4619.7 1203.91 4617.7 1203.91C4614.67 1203.91 4611.7 1203.26 4608.8 1201.95C4605.92 1200.65 4603.52 1198.67 4601.61 1196C4599.73 1193.33 4598.8 1189.97 4598.8 1185.91V1116.45ZM4669.09 1204.45C4662.36 1204.45 4656.56 1202.97 4651.68 1200C4646.83 1197 4643.09 1192.82 4640.45 1187.45C4637.85 1182.06 4636.55 1175.79 4636.55 1168.64C4636.55 1161.48 4637.85 1155.18 4640.45 1149.73C4643.09 1144.24 4646.76 1139.97 4651.45 1136.91C4656.18 1133.82 4661.7 1132.27 4668 1132.27C4671.64 1132.27 4675.23 1132.88 4678.77 1134.09C4682.32 1135.3 4685.55 1137.27 4688.45 1140C4691.36 1142.7 4693.68 1146.27 4695.41 1150.73C4697.14 1155.18 4698 1160.67 4698 1167.18V1171.73H4644.18V1162.45H4687.09C4687.09 1158.52 4686.3 1155 4684.73 1151.91C4683.18 1148.82 4680.97 1146.38 4678.09 1144.59C4675.24 1142.8 4671.88 1141.91 4668 1141.91C4663.73 1141.91 4660.03 1142.97 4656.91 1145.09C4653.82 1147.18 4651.44 1149.91 4649.77 1153.27C4648.11 1156.64 4647.27 1160.24 4647.27 1164.09V1170.27C4647.27 1175.55 4648.18 1180.02 4650 1183.68C4651.85 1187.32 4654.41 1190.09 4657.68 1192C4660.95 1193.88 4664.76 1194.82 4669.09 1194.82C4671.91 1194.82 4674.45 1194.42 4676.73 1193.64C4679.03 1192.82 4681.02 1191.61 4682.68 1190C4684.35 1188.36 4685.64 1186.33 4686.55 1183.91L4696.91 1186.82C4695.82 1190.33 4693.98 1193.42 4691.41 1196.09C4688.83 1198.73 4685.65 1200.79 4681.86 1202.27C4678.08 1203.73 4673.82 1204.45 4669.09 1204.45ZM4762.5 1203V1213H4704.32V1203H4762.5ZM4821.65 1148.82L4812.01 1151.55C4811.41 1149.94 4810.51 1148.38 4809.33 1146.86C4808.18 1145.32 4806.6 1144.05 4804.6 1143.05C4802.6 1142.05 4800.04 1141.55 4796.92 1141.55C4792.65 1141.55 4789.09 1142.53 4786.24 1144.5C4783.42 1146.44 4782.01 1148.91 4782.01 1151.91C4782.01 1154.58 4782.98 1156.68 4784.92 1158.23C4786.86 1159.77 4789.89 1161.06 4794.01 1162.09L4804.38 1164.64C4810.62 1166.15 4815.27 1168.47 4818.33 1171.59C4821.39 1174.68 4822.92 1178.67 4822.92 1183.55C4822.92 1187.55 4821.77 1191.12 4819.47 1194.27C4817.19 1197.42 4814.01 1199.91 4809.92 1201.73C4805.83 1203.55 4801.07 1204.45 4795.65 1204.45C4788.53 1204.45 4782.63 1202.91 4777.97 1199.82C4773.3 1196.73 4770.34 1192.21 4769.1 1186.27L4779.28 1183.73C4780.25 1187.48 4782.09 1190.3 4784.78 1192.18C4787.51 1194.06 4791.07 1195 4795.47 1195C4800.47 1195 4804.44 1193.94 4807.38 1191.82C4810.34 1189.67 4811.83 1187.09 4811.83 1184.09C4811.83 1181.67 4810.98 1179.64 4809.28 1178C4807.59 1176.33 4804.98 1175.09 4801.47 1174.27L4789.83 1171.55C4783.44 1170.03 4778.74 1167.68 4775.74 1164.5C4772.77 1161.29 4771.28 1157.27 4771.28 1152.45C4771.28 1148.52 4772.39 1145.03 4774.6 1142C4776.84 1138.97 4779.89 1136.59 4783.74 1134.86C4787.62 1133.14 4792.01 1132.27 4796.92 1132.27C4803.83 1132.27 4809.25 1133.79 4813.19 1136.82C4817.16 1139.85 4819.98 1143.85 4821.65 1148.82ZM4883.07 1174.45V1133.18H4893.8V1203H4883.07V1191.18H4882.34C4880.7 1194.73 4878.16 1197.74 4874.7 1200.23C4871.25 1202.68 4866.89 1203.91 4861.61 1203.91C4857.25 1203.91 4853.37 1202.95 4849.98 1201.05C4846.58 1199.11 4843.92 1196.2 4841.98 1192.32C4840.04 1188.41 4839.07 1183.48 4839.07 1177.55V1133.18H4849.8V1176.82C4849.8 1181.91 4851.22 1185.97 4854.07 1189C4856.95 1192.03 4860.61 1193.55 4865.07 1193.55C4867.73 1193.55 4870.45 1192.86 4873.2 1191.5C4875.99 1190.14 4878.33 1188.05 4880.2 1185.23C4882.11 1182.41 4883.07 1178.82 4883.07 1174.45ZM4914.9 1203V1109.91H4925.62V1144.27H4926.53C4927.32 1143.06 4928.41 1141.52 4929.81 1139.64C4931.23 1137.73 4933.26 1136.03 4935.9 1134.55C4938.56 1133.03 4942.17 1132.27 4946.72 1132.27C4952.59 1132.27 4957.78 1133.74 4962.26 1136.68C4966.75 1139.62 4970.25 1143.79 4972.76 1149.18C4975.28 1154.58 4976.53 1160.94 4976.53 1168.27C4976.53 1175.67 4975.28 1182.08 4972.76 1187.5C4970.25 1192.89 4966.76 1197.08 4962.31 1200.05C4957.85 1202.98 4952.72 1204.45 4946.9 1204.45C4942.41 1204.45 4938.82 1203.71 4936.12 1202.23C4933.43 1200.71 4931.35 1199 4929.9 1197.09C4928.44 1195.15 4927.32 1193.55 4926.53 1192.27H4925.26V1203H4914.9ZM4925.44 1168.09C4925.44 1173.36 4926.22 1178.02 4927.76 1182.05C4929.31 1186.05 4931.56 1189.18 4934.53 1191.45C4937.5 1193.7 4941.14 1194.82 4945.44 1194.82C4949.93 1194.82 4953.67 1193.64 4956.67 1191.27C4959.7 1188.88 4961.97 1185.67 4963.49 1181.64C4965.03 1177.58 4965.81 1173.06 4965.81 1168.09C4965.81 1163.18 4965.05 1158.76 4963.53 1154.82C4962.05 1150.85 4959.79 1147.71 4956.76 1145.41C4953.76 1143.08 4949.99 1141.91 4945.44 1141.91C4941.08 1141.91 4937.41 1143.02 4934.44 1145.23C4931.47 1147.41 4929.23 1150.47 4927.72 1154.41C4926.2 1158.32 4925.44 1162.88 4925.44 1168.09ZM4992.94 1203V1133.18H5003.31V1144.09H5004.22C5005.67 1140.36 5008.02 1137.47 5011.26 1135.41C5014.5 1133.32 5018.4 1132.27 5022.94 1132.27C5027.55 1132.27 5031.38 1133.32 5034.44 1135.41C5037.53 1137.47 5039.94 1140.36 5041.67 1144.09H5042.4C5044.19 1140.48 5046.87 1137.62 5050.44 1135.5C5054.02 1133.35 5058.31 1132.27 5063.31 1132.27C5069.55 1132.27 5074.66 1134.23 5078.62 1138.14C5082.59 1142.02 5084.58 1148.06 5084.58 1156.27V1203H5073.85V1156.27C5073.85 1151.12 5072.44 1147.44 5069.62 1145.23C5066.81 1143.02 5063.49 1141.91 5059.67 1141.91C5054.76 1141.91 5050.96 1143.39 5048.26 1146.36C5045.56 1149.3 5044.22 1153.03 5044.22 1157.55V1203H5033.31V1155.18C5033.31 1151.21 5032.02 1148.02 5029.44 1145.59C5026.87 1143.14 5023.55 1141.91 5019.49 1141.91C5016.7 1141.91 5014.09 1142.65 5011.67 1144.14C5009.28 1145.62 5007.34 1147.68 5005.85 1150.32C5004.4 1152.92 5003.67 1155.94 5003.67 1159.36V1203H4992.94ZM5104.19 1203V1133.18H5114.92V1203H5104.19ZM5109.65 1121.55C5107.56 1121.55 5105.75 1120.83 5104.24 1119.41C5102.75 1117.98 5102.01 1116.27 5102.01 1114.27C5102.01 1112.27 5102.75 1110.56 5104.24 1109.14C5105.75 1107.71 5107.56 1107 5109.65 1107C5111.74 1107 5113.53 1107.71 5115.01 1109.14C5116.53 1110.56 5117.28 1112.27 5117.28 1114.27C5117.28 1116.27 5116.53 1117.98 5115.01 1119.41C5113.53 1120.83 5111.74 1121.55 5109.65 1121.55ZM5184.02 1148.82L5174.39 1151.55C5173.78 1149.94 5172.89 1148.38 5171.7 1146.86C5170.55 1145.32 5168.98 1144.05 5166.98 1143.05C5164.98 1142.05 5162.42 1141.55 5159.3 1141.55C5155.02 1141.55 5151.46 1142.53 5148.61 1144.5C5145.8 1146.44 5144.39 1148.91 5144.39 1151.91C5144.39 1154.58 5145.36 1156.68 5147.3 1158.23C5149.23 1159.77 5152.27 1161.06 5156.39 1162.09L5166.75 1164.64C5172.99 1166.15 5177.64 1168.47 5180.7 1171.59C5183.77 1174.68 5185.3 1178.67 5185.3 1183.55C5185.3 1187.55 5184.14 1191.12 5181.84 1194.27C5179.57 1197.42 5176.39 1199.91 5172.3 1201.73C5168.2 1203.55 5163.45 1204.45 5158.02 1204.45C5150.9 1204.45 5145.01 1202.91 5140.34 1199.82C5135.67 1196.73 5132.72 1192.21 5131.48 1186.27L5141.66 1183.73C5142.63 1187.48 5144.46 1190.3 5147.16 1192.18C5149.89 1194.06 5153.45 1195 5157.84 1195C5162.84 1195 5166.81 1193.94 5169.75 1191.82C5172.72 1189.67 5174.2 1187.09 5174.2 1184.09C5174.2 1181.67 5173.36 1179.64 5171.66 1178C5169.96 1176.33 5167.36 1175.09 5163.84 1174.27L5152.2 1171.55C5145.81 1170.03 5141.11 1167.68 5138.11 1164.5C5135.14 1161.29 5133.66 1157.27 5133.66 1152.45C5133.66 1148.52 5134.77 1145.03 5136.98 1142C5139.22 1138.97 5142.27 1136.59 5146.11 1134.86C5149.99 1133.14 5154.39 1132.27 5159.3 1132.27C5166.2 1132.27 5171.63 1133.79 5175.57 1136.82C5179.54 1139.85 5182.36 1143.85 5184.02 1148.82ZM5250.9 1148.82L5241.26 1151.55C5240.66 1149.94 5239.76 1148.38 5238.58 1146.86C5237.43 1145.32 5235.85 1144.05 5233.85 1143.05C5231.85 1142.05 5229.29 1141.55 5226.17 1141.55C5221.9 1141.55 5218.34 1142.53 5215.49 1144.5C5212.67 1146.44 5211.26 1148.91 5211.26 1151.91C5211.26 1154.58 5212.23 1156.68 5214.17 1158.23C5216.11 1159.77 5219.14 1161.06 5223.26 1162.09L5233.62 1164.64C5239.87 1166.15 5244.52 1168.47 5247.58 1171.59C5250.64 1174.68 5252.17 1178.67 5252.17 1183.55C5252.17 1187.55 5251.02 1191.12 5248.72 1194.27C5246.44 1197.42 5243.26 1199.91 5239.17 1201.73C5235.08 1203.55 5230.32 1204.45 5224.9 1204.45C5217.78 1204.45 5211.88 1202.91 5207.22 1199.82C5202.55 1196.73 5199.59 1192.21 5198.35 1186.27L5208.53 1183.73C5209.5 1187.48 5211.34 1190.3 5214.03 1192.18C5216.76 1194.06 5220.32 1195 5224.72 1195C5229.72 1195 5233.69 1193.94 5236.62 1191.82C5239.59 1189.67 5241.08 1187.09 5241.08 1184.09C5241.08 1181.67 5240.23 1179.64 5238.53 1178C5236.84 1176.33 5234.23 1175.09 5230.72 1174.27L5219.08 1171.55C5212.69 1170.03 5207.99 1167.68 5204.99 1164.5C5202.02 1161.29 5200.53 1157.27 5200.53 1152.45C5200.53 1148.52 5201.64 1145.03 5203.85 1142C5206.09 1138.97 5209.14 1136.59 5212.99 1134.86C5216.87 1133.14 5221.26 1132.27 5226.17 1132.27C5233.08 1132.27 5238.5 1133.79 5242.44 1136.82C5246.41 1139.85 5249.23 1143.85 5250.9 1148.82ZM5268.32 1203V1133.18H5279.05V1203H5268.32ZM5273.77 1121.55C5271.68 1121.55 5269.88 1120.83 5268.36 1119.41C5266.88 1117.98 5266.14 1116.27 5266.14 1114.27C5266.14 1112.27 5266.88 1110.56 5268.36 1109.14C5269.88 1107.71 5271.68 1107 5273.77 1107C5275.86 1107 5277.65 1107.71 5279.14 1109.14C5280.65 1110.56 5281.41 1112.27 5281.41 1114.27C5281.41 1116.27 5280.65 1117.98 5279.14 1119.41C5277.65 1120.83 5275.86 1121.55 5273.77 1121.55ZM5327.06 1204.45C5320.75 1204.45 5315.22 1202.95 5310.47 1199.95C5305.74 1196.95 5302.04 1192.76 5299.38 1187.36C5296.74 1181.97 5295.42 1175.67 5295.42 1168.45C5295.42 1161.18 5296.74 1154.83 5299.38 1149.41C5302.04 1143.98 5305.74 1139.77 5310.47 1136.77C5315.22 1133.77 5320.75 1132.27 5327.06 1132.27C5333.36 1132.27 5338.88 1133.77 5343.6 1136.77C5348.36 1139.77 5352.06 1143.98 5354.69 1149.41C5357.36 1154.83 5358.69 1161.18 5358.69 1168.45C5358.69 1175.67 5357.36 1181.97 5354.69 1187.36C5352.06 1192.76 5348.36 1196.95 5343.6 1199.95C5338.88 1202.95 5333.36 1204.45 5327.06 1204.45ZM5327.06 1194.82C5331.84 1194.82 5335.78 1193.59 5338.88 1191.14C5341.97 1188.68 5344.25 1185.45 5345.74 1181.45C5347.22 1177.45 5347.97 1173.12 5347.97 1168.45C5347.97 1163.79 5347.22 1159.44 5345.74 1155.41C5344.25 1151.38 5341.97 1148.12 5338.88 1145.64C5335.78 1143.15 5331.84 1141.91 5327.06 1141.91C5322.27 1141.91 5318.33 1143.15 5315.24 1145.64C5312.15 1148.12 5309.86 1151.38 5308.38 1155.41C5306.89 1159.44 5306.15 1163.79 5306.15 1168.45C5306.15 1173.12 5306.89 1177.45 5308.38 1181.45C5309.86 1185.45 5312.15 1188.68 5315.24 1191.14C5318.33 1193.59 5322.27 1194.82 5327.06 1194.82ZM5385.8 1161V1203H5375.07V1133.18H5385.43V1144.09H5386.34C5387.98 1140.55 5390.46 1137.7 5393.8 1135.55C5397.13 1133.36 5401.43 1132.27 5406.7 1132.27C5411.43 1132.27 5415.57 1133.24 5419.11 1135.18C5422.66 1137.09 5425.42 1140 5427.39 1143.91C5429.36 1147.79 5430.34 1152.7 5430.34 1158.64V1203H5419.61V1159.36C5419.61 1153.88 5418.19 1149.61 5415.34 1146.55C5412.49 1143.45 5408.58 1141.91 5403.61 1141.91C5400.19 1141.91 5397.13 1142.65 5394.43 1144.14C5391.77 1145.62 5389.66 1147.79 5388.11 1150.64C5386.57 1153.48 5385.8 1156.94 5385.8 1161Z" fill="white"/>
<path d="M4472.09 1518.45C4465.36 1518.45 4459.56 1516.97 4454.68 1514C4449.83 1511 4446.09 1506.82 4443.45 1501.45C4440.85 1496.06 4439.55 1489.79 4439.55 1482.64C4439.55 1475.48 4440.85 1469.18 4443.45 1463.73C4446.09 1458.24 4449.76 1453.97 4454.45 1450.91C4459.18 1447.82 4464.7 1446.27 4471 1446.27C4474.64 1446.27 4478.23 1446.88 4481.77 1448.09C4485.32 1449.3 4488.55 1451.27 4491.45 1454C4494.36 1456.7 4496.68 1460.27 4498.41 1464.73C4500.14 1469.18 4501 1474.67 4501 1481.18V1485.73H4447.18V1476.45H4490.09C4490.09 1472.52 4489.3 1469 4487.73 1465.91C4486.18 1462.82 4483.97 1460.38 4481.09 1458.59C4478.24 1456.8 4474.88 1455.91 4471 1455.91C4466.73 1455.91 4463.03 1456.97 4459.91 1459.09C4456.82 1461.18 4454.44 1463.91 4452.77 1467.27C4451.11 1470.64 4450.27 1474.24 4450.27 1478.09V1484.27C4450.27 1489.55 4451.18 1494.02 4453 1497.68C4454.85 1501.32 4457.41 1504.09 4460.68 1506C4463.95 1507.88 4467.76 1508.82 4472.09 1508.82C4474.91 1508.82 4477.45 1508.42 4479.73 1507.64C4482.03 1506.82 4484.02 1505.61 4485.68 1504C4487.35 1502.36 4488.64 1500.33 4489.55 1497.91L4499.91 1500.82C4498.82 1504.33 4496.98 1507.42 4494.41 1510.09C4491.83 1512.73 4488.65 1514.79 4484.86 1516.27C4481.08 1517.73 4476.82 1518.45 4472.09 1518.45ZM4528.05 1475V1517H4517.32V1447.18H4527.68V1458.09H4528.59C4530.23 1454.55 4532.71 1451.7 4536.05 1449.55C4539.38 1447.36 4543.68 1446.27 4548.95 1446.27C4553.68 1446.27 4557.82 1447.24 4561.36 1449.18C4564.91 1451.09 4567.67 1454 4569.64 1457.91C4571.61 1461.79 4572.59 1466.7 4572.59 1472.64V1517H4561.86V1473.36C4561.86 1467.88 4560.44 1463.61 4557.59 1460.55C4554.74 1457.45 4550.83 1455.91 4545.86 1455.91C4542.44 1455.91 4539.38 1456.65 4536.68 1458.14C4534.02 1459.62 4531.91 1461.79 4530.36 1464.64C4528.82 1467.48 4528.05 1470.94 4528.05 1475ZM4622.56 1447.18V1456.27H4586.38V1447.18H4622.56ZM4596.92 1430.45H4607.65V1497C4607.65 1500.03 4608.09 1502.3 4608.97 1503.82C4609.88 1505.3 4611.03 1506.3 4612.42 1506.82C4613.84 1507.3 4615.34 1507.55 4616.92 1507.55C4618.1 1507.55 4619.07 1507.48 4619.83 1507.36C4620.59 1507.21 4621.19 1507.09 4621.65 1507L4623.83 1516.64C4623.1 1516.91 4622.09 1517.18 4620.78 1517.45C4619.48 1517.76 4617.83 1517.91 4615.83 1517.91C4612.8 1517.91 4609.83 1517.26 4606.92 1515.95C4604.04 1514.65 4601.65 1512.67 4599.74 1510C4597.86 1507.33 4596.92 1503.97 4596.92 1499.91V1430.45ZM4638.69 1517V1447.18H4649.06V1457.73H4649.78C4651.06 1454.27 4653.36 1451.47 4656.69 1449.32C4660.03 1447.17 4663.78 1446.09 4667.97 1446.09C4668.75 1446.09 4669.74 1446.11 4670.92 1446.14C4672.1 1446.17 4673 1446.21 4673.6 1446.27V1457.18C4673.24 1457.09 4672.41 1456.95 4671.1 1456.77C4669.83 1456.56 4668.48 1456.45 4667.06 1456.45C4663.66 1456.45 4660.63 1457.17 4657.97 1458.59C4655.33 1459.98 4653.24 1461.92 4651.69 1464.41C4650.18 1466.86 4649.42 1469.67 4649.42 1472.82V1517H4638.69ZM4695.35 1543.18C4693.53 1543.18 4691.91 1543.03 4690.49 1542.73C4689.06 1542.45 4688.08 1542.18 4687.53 1541.91L4690.26 1532.45C4692.87 1533.12 4695.17 1533.36 4697.17 1533.18C4699.17 1533 4700.94 1532.11 4702.49 1530.5C4704.06 1528.92 4705.5 1526.36 4706.81 1522.82L4708.81 1517.36L4682.99 1447.18H4694.62L4713.9 1502.82H4714.62L4733.9 1447.18H4745.53L4715.9 1527.18C4714.56 1530.79 4712.91 1533.77 4710.94 1536.14C4708.97 1538.53 4706.69 1540.3 4704.08 1541.45C4701.5 1542.61 4698.59 1543.18 4695.35 1543.18ZM4797.75 1517V1527H4739.57V1517H4797.75ZM4811.82 1517V1447.18H4822.55V1517H4811.82ZM4817.27 1435.55C4815.18 1435.55 4813.38 1434.83 4811.86 1433.41C4810.38 1431.98 4809.64 1430.27 4809.64 1428.27C4809.64 1426.27 4810.38 1424.56 4811.86 1423.14C4813.38 1421.71 4815.18 1421 4817.27 1421C4819.36 1421 4821.15 1421.71 4822.64 1423.14C4824.15 1424.56 4824.91 1426.27 4824.91 1428.27C4824.91 1430.27 4824.15 1431.98 4822.64 1433.41C4821.15 1434.83 4819.36 1435.55 4817.27 1435.55ZM4868.56 1518.45C4862.74 1518.45 4857.6 1516.98 4853.15 1514.05C4848.69 1511.08 4845.21 1506.89 4842.69 1501.5C4840.18 1496.08 4838.92 1489.67 4838.92 1482.27C4838.92 1474.94 4840.18 1468.58 4842.69 1463.18C4845.21 1457.79 4848.71 1453.62 4853.19 1450.68C4857.68 1447.74 4862.86 1446.27 4868.74 1446.27C4873.28 1446.27 4876.88 1447.03 4879.51 1448.55C4882.18 1450.03 4884.21 1451.73 4885.6 1453.64C4887.03 1455.52 4888.13 1457.06 4888.92 1458.27H4889.83V1423.91H4900.56V1517H4890.19V1506.27H4888.92C4888.13 1507.55 4887.01 1509.15 4885.56 1511.09C4884.1 1513 4882.03 1514.71 4879.33 1516.23C4876.63 1517.71 4873.04 1518.45 4868.56 1518.45ZM4870.01 1508.82C4874.31 1508.82 4877.95 1507.7 4880.92 1505.45C4883.89 1503.18 4886.15 1500.05 4887.69 1496.05C4889.24 1492.02 4890.01 1487.36 4890.01 1482.09C4890.01 1476.88 4889.25 1472.32 4887.74 1468.41C4886.22 1464.47 4883.98 1461.41 4881.01 1459.23C4878.04 1457.02 4874.38 1455.91 4870.01 1455.91C4865.47 1455.91 4861.68 1457.08 4858.65 1459.41C4855.65 1461.71 4853.39 1464.85 4851.88 1468.82C4850.39 1472.76 4849.65 1477.18 4849.65 1482.09C4849.65 1487.06 4850.41 1491.58 4851.92 1495.64C4853.47 1499.67 4855.74 1502.88 4858.74 1505.27C4861.77 1507.64 4865.53 1508.82 4870.01 1508.82Z" fill="white"/>
<path d="M597.818 1203V1133.18H608.545V1203H597.818ZM603.273 1121.55C601.182 1121.55 599.379 1120.83 597.864 1119.41C596.379 1117.98 595.636 1116.27 595.636 1114.27C595.636 1112.27 596.379 1110.56 597.864 1109.14C599.379 1107.71 601.182 1107 603.273 1107C605.364 1107 607.152 1107.71 608.636 1109.14C610.152 1110.56 610.909 1112.27 610.909 1114.27C610.909 1116.27 610.152 1117.98 608.636 1119.41C607.152 1120.83 605.364 1121.55 603.273 1121.55ZM677.648 1148.82L668.011 1151.55C667.405 1149.94 666.511 1148.38 665.33 1146.86C664.178 1145.32 662.602 1144.05 660.602 1143.05C658.602 1142.05 656.042 1141.55 652.92 1141.55C648.648 1141.55 645.087 1142.53 642.239 1144.5C639.42 1146.44 638.011 1148.91 638.011 1151.91C638.011 1154.58 638.981 1156.68 640.92 1158.23C642.86 1159.77 645.89 1161.06 650.011 1162.09L660.375 1164.64C666.617 1166.15 671.269 1168.47 674.33 1171.59C677.39 1174.68 678.92 1178.67 678.92 1183.55C678.92 1187.55 677.769 1191.12 675.466 1194.27C673.193 1197.42 670.011 1199.91 665.92 1201.73C661.83 1203.55 657.072 1204.45 651.648 1204.45C644.527 1204.45 638.633 1202.91 633.966 1199.82C629.299 1196.73 626.345 1192.21 625.102 1186.27L635.284 1183.73C636.254 1187.48 638.087 1190.3 640.784 1192.18C643.511 1194.06 647.072 1195 651.466 1195C656.466 1195 660.436 1193.94 663.375 1191.82C666.345 1189.67 667.83 1187.09 667.83 1184.09C667.83 1181.67 666.981 1179.64 665.284 1178C663.587 1176.33 660.981 1175.09 657.466 1174.27L645.83 1171.55C639.436 1170.03 634.739 1167.68 631.739 1164.5C628.769 1161.29 627.284 1157.27 627.284 1152.45C627.284 1148.52 628.39 1145.03 630.602 1142C632.845 1138.97 635.89 1136.59 639.739 1134.86C643.617 1133.14 648.011 1132.27 652.92 1132.27C659.83 1132.27 665.254 1133.79 669.193 1136.82C673.163 1139.85 675.981 1143.85 677.648 1148.82ZM696.523 1203V1109.91H707.25V1144.27H708.159C708.947 1143.06 710.038 1141.52 711.432 1139.64C712.856 1137.73 714.886 1136.03 717.523 1134.55C720.189 1133.03 723.795 1132.27 728.341 1132.27C734.22 1132.27 739.402 1133.74 743.886 1136.68C748.371 1139.62 751.871 1143.79 754.386 1149.18C756.902 1154.58 758.159 1160.94 758.159 1168.27C758.159 1175.67 756.902 1182.08 754.386 1187.5C751.871 1192.89 748.386 1197.08 743.932 1200.05C739.477 1202.98 734.341 1204.45 728.523 1204.45C724.038 1204.45 720.447 1203.71 717.75 1202.23C715.053 1200.71 712.977 1199 711.523 1197.09C710.068 1195.15 708.947 1193.55 708.159 1192.27H706.886V1203H696.523ZM707.068 1168.09C707.068 1173.36 707.841 1178.02 709.386 1182.05C710.932 1186.05 713.189 1189.18 716.159 1191.45C719.129 1193.7 722.765 1194.82 727.068 1194.82C731.553 1194.82 735.295 1193.64 738.295 1191.27C741.326 1188.88 743.598 1185.67 745.114 1181.64C746.659 1177.58 747.432 1173.06 747.432 1168.09C747.432 1163.18 746.674 1158.76 745.159 1154.82C743.674 1150.85 741.417 1147.71 738.386 1145.41C735.386 1143.08 731.614 1141.91 727.068 1141.91C722.705 1141.91 719.038 1143.02 716.068 1145.23C713.098 1147.41 710.856 1150.47 709.341 1154.41C707.826 1158.32 707.068 1162.88 707.068 1168.09ZM785.295 1161V1203H774.568V1133.18H784.932V1144.09H785.841C787.477 1140.55 789.962 1137.7 793.295 1135.55C796.629 1133.36 800.932 1132.27 806.205 1132.27C810.932 1132.27 815.068 1133.24 818.614 1135.18C822.159 1137.09 824.917 1140 826.886 1143.91C828.856 1147.79 829.841 1152.7 829.841 1158.64V1203H819.114V1159.36C819.114 1153.88 817.689 1149.61 814.841 1146.55C811.992 1143.45 808.083 1141.91 803.114 1141.91C799.689 1141.91 796.629 1142.65 793.932 1144.14C791.265 1145.62 789.159 1147.79 787.614 1150.64C786.068 1153.48 785.295 1156.94 785.295 1161Z" fill="black"/>
<path d="M647.273 1462.82L637.636 1465.55C637.03 1463.94 636.136 1462.38 634.955 1460.86C633.803 1459.32 632.227 1458.05 630.227 1457.05C628.227 1456.05 625.667 1455.55 622.545 1455.55C618.273 1455.55 614.712 1456.53 611.864 1458.5C609.045 1460.44 607.636 1462.91 607.636 1465.91C607.636 1468.58 608.606 1470.68 610.545 1472.23C612.485 1473.77 615.515 1475.06 619.636 1476.09L630 1478.64C636.242 1480.15 640.894 1482.47 643.955 1485.59C647.015 1488.68 648.545 1492.67 648.545 1497.55C648.545 1501.55 647.394 1505.12 645.091 1508.27C642.818 1511.42 639.636 1513.91 635.545 1515.73C631.455 1517.55 626.697 1518.45 621.273 1518.45C614.152 1518.45 608.258 1516.91 603.591 1513.82C598.924 1510.73 595.97 1506.21 594.727 1500.27L604.909 1497.73C605.879 1501.48 607.712 1504.3 610.409 1506.18C613.136 1508.06 616.697 1509 621.091 1509C626.091 1509 630.061 1507.94 633 1505.82C635.97 1503.67 637.455 1501.09 637.455 1498.09C637.455 1495.67 636.606 1493.64 634.909 1492C633.212 1490.33 630.606 1489.09 627.091 1488.27L615.455 1485.55C609.061 1484.03 604.364 1481.68 601.364 1478.5C598.394 1475.29 596.909 1471.27 596.909 1466.45C596.909 1462.52 598.015 1459.03 600.227 1456C602.47 1452.97 605.515 1450.59 609.364 1448.86C613.242 1447.14 617.636 1446.27 622.545 1446.27C629.455 1446.27 634.879 1447.79 638.818 1450.82C642.788 1453.85 645.606 1457.85 647.273 1462.82ZM708.693 1488.45V1447.18H719.42V1517H708.693V1505.18H707.966C706.33 1508.73 703.784 1511.74 700.33 1514.23C696.875 1516.68 692.511 1517.91 687.239 1517.91C682.875 1517.91 678.996 1516.95 675.602 1515.05C672.208 1513.11 669.542 1510.2 667.602 1506.32C665.663 1502.41 664.693 1497.48 664.693 1491.55V1447.18H675.42V1490.82C675.42 1495.91 676.845 1499.97 679.693 1503C682.572 1506.03 686.239 1507.55 690.693 1507.55C693.36 1507.55 696.072 1506.86 698.83 1505.5C701.617 1504.14 703.951 1502.05 705.83 1499.23C707.739 1496.41 708.693 1492.82 708.693 1488.45ZM739.068 1517V1447.18H749.432V1458.09H750.341C751.795 1454.36 754.144 1451.47 757.386 1449.41C760.629 1447.32 764.523 1446.27 769.068 1446.27C773.674 1446.27 777.508 1447.32 780.568 1449.41C783.659 1451.47 786.068 1454.36 787.795 1458.09H788.523C790.311 1454.48 792.992 1451.62 796.568 1449.5C800.144 1447.35 804.432 1446.27 809.432 1446.27C815.674 1446.27 820.78 1448.23 824.75 1452.14C828.72 1456.02 830.705 1462.06 830.705 1470.27V1517H819.977V1470.27C819.977 1465.12 818.568 1461.44 815.75 1459.23C812.932 1457.02 809.614 1455.91 805.795 1455.91C800.886 1455.91 797.083 1457.39 794.386 1460.36C791.689 1463.3 790.341 1467.03 790.341 1471.55V1517H779.432V1469.18C779.432 1465.21 778.144 1462.02 775.568 1459.59C772.992 1457.14 769.674 1455.91 765.614 1455.91C762.826 1455.91 760.22 1456.65 757.795 1458.14C755.402 1459.62 753.462 1461.68 751.977 1464.32C750.523 1466.92 749.795 1469.94 749.795 1473.36V1517H739.068ZM850.318 1517V1447.18H860.682V1458.09H861.591C863.045 1454.36 865.394 1451.47 868.636 1449.41C871.879 1447.32 875.773 1446.27 880.318 1446.27C884.924 1446.27 888.758 1447.32 891.818 1449.41C894.909 1451.47 897.318 1454.36 899.045 1458.09H899.773C901.561 1454.48 904.242 1451.62 907.818 1449.5C911.394 1447.35 915.682 1446.27 920.682 1446.27C926.924 1446.27 932.03 1448.23 936 1452.14C939.97 1456.02 941.955 1462.06 941.955 1470.27V1517H931.227V1470.27C931.227 1465.12 929.818 1461.44 927 1459.23C924.182 1457.02 920.864 1455.91 917.045 1455.91C912.136 1455.91 908.333 1457.39 905.636 1460.36C902.939 1463.3 901.591 1467.03 901.591 1471.55V1517H890.682V1469.18C890.682 1465.21 889.394 1462.02 886.818 1459.59C884.242 1457.14 880.924 1455.91 876.864 1455.91C874.076 1455.91 871.47 1456.65 869.045 1458.14C866.652 1459.62 864.712 1461.68 863.227 1464.32C861.773 1466.92 861.045 1469.94 861.045 1473.36V1517H850.318ZM982.114 1518.64C977.689 1518.64 973.674 1517.8 970.068 1516.14C966.462 1514.44 963.598 1512 961.477 1508.82C959.356 1505.61 958.295 1501.73 958.295 1497.18C958.295 1493.18 959.083 1489.94 960.659 1487.45C962.235 1484.94 964.341 1482.97 966.977 1481.55C969.614 1480.12 972.523 1479.06 975.705 1478.36C978.917 1477.64 982.144 1477.06 985.386 1476.64C989.629 1476.09 993.068 1475.68 995.705 1475.41C998.371 1475.11 1000.31 1474.61 1001.52 1473.91C1002.77 1473.21 1003.39 1472 1003.39 1470.27V1469.91C1003.39 1465.42 1002.16 1461.94 999.705 1459.45C997.28 1456.97 993.598 1455.73 988.659 1455.73C983.538 1455.73 979.523 1456.85 976.614 1459.09C973.705 1461.33 971.659 1463.73 970.477 1466.27L960.295 1462.64C962.114 1458.39 964.538 1455.09 967.568 1452.73C970.629 1450.33 973.962 1448.67 977.568 1447.73C981.205 1446.76 984.78 1446.27 988.295 1446.27C990.538 1446.27 993.114 1446.55 996.023 1447.09C998.962 1447.61 1001.8 1448.68 1004.52 1450.32C1007.28 1451.95 1009.57 1454.42 1011.39 1457.73C1013.2 1461.03 1014.11 1465.45 1014.11 1471V1517H1003.39V1507.55H1002.84C1002.11 1509.06 1000.9 1510.68 999.205 1512.41C997.508 1514.14 995.25 1515.61 992.432 1516.82C989.614 1518.03 986.174 1518.64 982.114 1518.64ZM983.75 1509C987.992 1509 991.568 1508.17 994.477 1506.5C997.417 1504.83 999.629 1502.68 1001.11 1500.05C1002.63 1497.41 1003.39 1494.64 1003.39 1491.73V1481.91C1002.93 1482.45 1001.93 1482.95 1000.39 1483.41C998.871 1483.83 997.114 1484.21 995.114 1484.55C993.144 1484.85 991.22 1485.12 989.341 1485.36C987.492 1485.58 985.992 1485.76 984.841 1485.91C982.053 1486.27 979.447 1486.86 977.023 1487.68C974.629 1488.47 972.689 1489.67 971.205 1491.27C969.75 1492.85 969.023 1495 969.023 1497.73C969.023 1501.45 970.402 1504.27 973.159 1506.18C975.947 1508.06 979.477 1509 983.75 1509ZM1033.69 1517V1447.18H1044.06V1457.73H1044.78C1046.06 1454.27 1048.36 1451.47 1051.69 1449.32C1055.03 1447.17 1058.78 1446.09 1062.97 1446.09C1063.75 1446.09 1064.74 1446.11 1065.92 1446.14C1067.1 1446.17 1068 1446.21 1068.6 1446.27V1457.18C1068.24 1457.09 1067.41 1456.95 1066.1 1456.77C1064.83 1456.56 1063.48 1456.45 1062.06 1456.45C1058.66 1456.45 1055.63 1457.17 1052.97 1458.59C1050.33 1459.98 1048.24 1461.92 1046.69 1464.41C1045.18 1466.86 1044.42 1469.67 1044.42 1472.82V1517H1033.69ZM1090.35 1543.18C1088.53 1543.18 1086.91 1543.03 1085.49 1542.73C1084.06 1542.45 1083.08 1542.18 1082.53 1541.91L1085.26 1532.45C1087.87 1533.12 1090.17 1533.36 1092.17 1533.18C1094.17 1533 1095.94 1532.11 1097.49 1530.5C1099.06 1528.92 1100.5 1526.36 1101.81 1522.82L1103.81 1517.36L1077.99 1447.18H1089.62L1108.9 1502.82H1109.62L1128.9 1447.18H1140.53L1110.9 1527.18C1109.56 1530.79 1107.91 1533.77 1105.94 1536.14C1103.97 1538.53 1101.69 1540.3 1099.08 1541.45C1096.5 1542.61 1093.59 1543.18 1090.35 1543.18Z" fill="black"/>
<path d="M628.182 1761.18V1770.27H592V1761.18H628.182ZM602.545 1744.45H613.273V1811C613.273 1814.03 613.712 1816.3 614.591 1817.82C615.5 1819.3 616.652 1820.3 618.045 1820.82C619.47 1821.3 620.97 1821.55 622.545 1821.55C623.727 1821.55 624.697 1821.48 625.455 1821.36C626.212 1821.21 626.818 1821.09 627.273 1821L629.455 1830.64C628.727 1830.91 627.712 1831.18 626.409 1831.45C625.106 1831.76 623.455 1831.91 621.455 1831.91C618.424 1831.91 615.455 1831.26 612.545 1829.95C609.667 1828.65 607.273 1826.67 605.364 1824C603.485 1821.33 602.545 1817.97 602.545 1813.91V1744.45ZM644.318 1831V1761.18H655.045V1831H644.318ZM649.773 1749.55C647.682 1749.55 645.879 1748.83 644.364 1747.41C642.879 1745.98 642.136 1744.27 642.136 1742.27C642.136 1740.27 642.879 1738.56 644.364 1737.14C645.879 1735.71 647.682 1735 649.773 1735C651.864 1735 653.652 1735.71 655.136 1737.14C656.652 1738.56 657.409 1740.27 657.409 1742.27C657.409 1744.27 656.652 1745.98 655.136 1747.41C653.652 1748.83 651.864 1749.55 649.773 1749.55ZM705.057 1761.18V1770.27H668.875V1761.18H705.057ZM679.42 1744.45H690.148V1811C690.148 1814.03 690.587 1816.3 691.466 1817.82C692.375 1819.3 693.527 1820.3 694.92 1820.82C696.345 1821.3 697.845 1821.55 699.42 1821.55C700.602 1821.55 701.572 1821.48 702.33 1821.36C703.087 1821.21 703.693 1821.09 704.148 1821L706.33 1830.64C705.602 1830.91 704.587 1831.18 703.284 1831.45C701.981 1831.76 700.33 1831.91 698.33 1831.91C695.299 1831.91 692.33 1831.26 689.42 1829.95C686.542 1828.65 684.148 1826.67 682.239 1824C680.36 1821.33 679.42 1817.97 679.42 1813.91V1744.45ZM733.42 1737.91V1831H722.693V1737.91H733.42ZM782.341 1832.45C775.614 1832.45 769.811 1830.97 764.932 1828C760.083 1825 756.341 1820.82 753.705 1815.45C751.098 1810.06 749.795 1803.79 749.795 1796.64C749.795 1789.48 751.098 1783.18 753.705 1777.73C756.341 1772.24 760.008 1767.97 764.705 1764.91C769.432 1761.82 774.947 1760.27 781.25 1760.27C784.886 1760.27 788.477 1760.88 792.023 1762.09C795.568 1763.3 798.795 1765.27 801.705 1768C804.614 1770.7 806.932 1774.27 808.659 1778.73C810.386 1783.18 811.25 1788.67 811.25 1795.18V1799.73H757.432V1790.45H800.341C800.341 1786.52 799.553 1783 797.977 1779.91C796.432 1776.82 794.22 1774.38 791.341 1772.59C788.492 1770.8 785.129 1769.91 781.25 1769.91C776.977 1769.91 773.28 1770.97 770.159 1773.09C767.068 1775.18 764.689 1777.91 763.023 1781.27C761.356 1784.64 760.523 1788.24 760.523 1792.09V1798.27C760.523 1803.55 761.432 1808.02 763.25 1811.68C765.098 1815.32 767.659 1818.09 770.932 1820C774.205 1821.88 778.008 1822.82 782.341 1822.82C785.159 1822.82 787.705 1822.42 789.977 1821.64C792.28 1820.82 794.265 1819.61 795.932 1818C797.598 1816.36 798.886 1814.33 799.795 1811.91L810.159 1814.82C809.068 1818.33 807.235 1821.42 804.659 1824.09C802.083 1826.73 798.902 1828.79 795.114 1830.27C791.326 1831.73 787.068 1832.45 782.341 1832.45Z" fill="black"/>
<path d="M2383 811.5C3034.5 811.5 2909 1430.5 3735.5 1454" stroke="black" stroke-width="24"/>
<line x1="3602.5" y1="1438.79" x2="3741.64" y2="1351.82" stroke="black" stroke-width="24"/>
<line x1="3596.69" y1="1442.04" x2="3733.69" y2="1534.04" stroke="black" stroke-width="24"/>
</svg>
